<svg id="svg" version="1.1" xmlns="http://www.w3.org/2000/svg" xmlns:xlink="http://www.w3.org/1999/xlink" width="400" height="400" viewBox="0, 0, 400,400"><g id="svgg"><path id="path0" d="M155.600 91.255 C 149.330 99.629,143.930 106.806,143.600 107.204 C 143.270 107.603,141.880 109.430,140.511 111.264 C 139.142 113.099,137.370 115.455,136.573 116.500 L 135.123 118.400 141.882 118.400 C 146.605 118.400,148.785 118.545,149.120 118.880 C 149.766 119.526,149.817 207.284,149.173 210.480 C 146.652 223.003,138.465 230.943,125.740 233.205 C 123.003 233.691,121.870 233.643,117.400 232.845 C 114.116 232.259,107.600 229.554,107.600 228.776 C 107.600 228.599,107.273 228.350,106.873 228.223 C 103.960 227.299,98.948 220.273,96.726 214.000 L 95.806 211.400 95.691 175.500 L 95.575 139.600 77.788 139.600 L 60.000 139.600 60.000 177.376 C 60.000 202.129,60.138 215.238,60.400 215.400 C 60.620 215.536,60.800 216.252,60.800 216.991 C 60.800 227.004,71.100 245.234,81.818 254.191 C 83.128 255.286,84.290 256.276,84.400 256.391 C 85.841 257.896,94.495 262.866,98.000 264.202 C 99.650 264.830,101.171 265.492,101.380 265.672 C 101.589 265.853,102.163 266.000,102.656 266.000 C 103.149 266.000,103.652 266.160,103.773 266.356 C 103.894 266.551,104.579 266.804,105.296 266.918 C 106.013 267.031,108.220 267.525,110.200 268.014 C 115.498 269.324,129.192 269.329,134.800 268.023 C 136.890 267.536,139.050 267.048,139.600 266.939 C 140.150 266.829,140.960 266.588,141.400 266.402 C 141.840 266.216,143.550 265.567,145.200 264.960 C 147.951 263.948,150.519 262.704,154.516 260.451 C 160.100 257.302,168.172 250.174,172.014 245.000 C 172.994 243.680,173.887 242.510,173.999 242.400 C 175.287 241.134,180.800 230.792,180.800 229.642 C 180.800 229.393,180.958 228.877,181.151 228.495 C 182.148 226.523,182.800 224.671,182.800 223.810 C 182.800 223.280,182.961 222.748,183.158 222.626 C 183.355 222.505,183.617 221.729,183.742 220.903 C 183.867 220.076,184.182 218.320,184.442 217.000 C 184.780 215.280,184.985 200.990,185.164 166.600 C 185.302 140.200,185.456 118.559,185.507 118.509 C 185.558 118.460,188.662 118.370,192.406 118.309 L 199.211 118.200 197.906 116.346 C 196.374 114.171,191.218 107.261,187.800 102.803 C 186.480 101.081,185.091 99.251,184.713 98.736 C 179.357 91.434,167.704 76.227,167.400 76.142 C 167.180 76.081,161.870 82.882,155.600 91.255 M267.800 127.605 C 258.446 128.276,249.417 131.031,240.600 135.904 C 232.411 140.431,223.824 148.349,218.372 156.400 C 216.113 159.737,215.574 160.677,213.559 164.800 C 210.024 172.033,208.684 176.538,207.615 184.800 C 207.401 186.450,207.030 188.970,206.790 190.400 C 206.483 192.227,206.390 212.570,206.477 258.800 L 206.600 324.600 224.500 324.704 L 242.400 324.808 242.400 289.228 C 242.400 251.151,242.308 252.693,244.520 253.725 C 246.114 254.469,249.534 255.973,250.600 256.400 C 251.752 256.861,255.473 257.908,257.800 258.425 C 258.900 258.670,260.353 259.034,261.028 259.235 C 261.704 259.436,263.243 259.600,264.448 259.600 C 265.654 259.600,266.829 259.789,267.061 260.021 C 268.778 261.738,290.572 258.945,295.695 256.352 C 296.077 256.158,296.576 256.000,296.805 256.000 C 297.508 256.000,304.758 252.451,307.050 250.985 C 308.241 250.223,309.323 249.600,309.454 249.600 C 309.679 249.600,313.568 246.873,314.000 246.413 C 314.110 246.296,315.010 245.547,316.000 244.750 C 319.548 241.891,323.822 237.252,327.011 232.800 C 327.877 231.590,328.724 230.540,328.893 230.467 C 329.062 230.393,329.200 230.160,329.200 229.947 C 329.200 229.735,329.794 228.625,330.520 227.481 C 332.377 224.553,335.140 218.687,336.023 215.800 C 336.292 214.920,336.657 213.750,336.834 213.200 C 340.450 201.978,340.701 188.357,337.501 177.000 C 337.067 175.460,336.621 173.703,336.510 173.095 C 336.399 172.487,336.149 171.892,335.954 171.771 C 335.759 171.651,335.600 171.237,335.600 170.852 C 335.600 170.466,335.223 169.351,334.761 168.375 C 334.300 167.399,333.459 165.610,332.892 164.400 C 329.395 156.940,320.404 145.995,313.800 141.158 C 312.480 140.191,311.340 139.265,311.267 139.100 C 311.193 138.935,310.969 138.800,310.768 138.800 C 310.566 138.800,309.546 138.201,308.501 137.469 C 306.966 136.394,303.010 134.341,298.000 132.019 C 296.262 131.214,288.936 129.159,285.200 128.428 C 282.963 127.991,274.058 127.169,272.600 127.266 C 272.160 127.295,270.000 127.448,267.800 127.605 M276.800 163.449 C 279.784 163.696,282.672 164.504,286.400 166.133 C 289.333 167.415,295.124 172.034,297.016 174.600 C 297.665 175.480,298.286 176.290,298.398 176.400 C 300.358 178.338,302.900 185.122,303.608 190.303 C 304.543 197.139,301.776 207.881,298.146 211.511 C 297.846 211.811,297.600 212.185,297.600 212.341 C 297.600 212.845,292.714 217.621,291.031 218.763 C 286.282 221.984,281.575 223.688,274.952 224.584 C 272.881 224.864,266.625 224.032,264.200 223.154 C 261.620 222.220,261.133 221.994,257.179 219.903 C 245.268 213.603,239.128 195.059,244.794 182.500 C 245.017 182.005,245.420 181.105,245.688 180.500 C 247.812 175.713,255.930 167.200,258.372 167.200 C 258.607 167.200,258.800 167.020,258.800 166.800 C 258.800 166.580,259.124 166.400,259.520 166.400 C 259.916 166.400,260.411 166.231,260.620 166.026 C 261.332 165.324,267.296 163.600,269.151 163.560 C 270.168 163.538,271.450 163.372,272.000 163.191 C 272.550 163.010,273.360 162.953,273.800 163.064 C 274.240 163.176,275.590 163.349,276.800 163.449 " stroke="none" fill="#fbfbfb" fill-rule="evenodd"></path><path id="path1" d="M157.200 88.000 C 156.730 88.660,156.436 89.200,156.546 89.200 C 156.656 89.200,157.130 88.660,157.600 88.000 C 158.070 87.340,158.364 86.800,158.254 86.800 C 158.144 86.800,157.670 87.340,157.200 88.000 M179.200 90.800 C 179.670 91.460,180.144 92.000,180.254 92.000 C 180.364 92.000,180.070 91.460,179.600 90.800 C 179.130 90.140,178.656 89.600,178.546 89.600 C 178.436 89.600,178.730 90.140,179.200 90.800 M143.600 106.000 C 143.130 106.660,142.836 107.200,142.946 107.200 C 143.056 107.200,143.530 106.660,144.000 106.000 C 144.470 105.340,144.764 104.800,144.654 104.800 C 144.544 104.800,144.070 105.340,143.600 106.000 M192.800 108.800 C 193.270 109.460,193.744 110.000,193.854 110.000 C 193.964 110.000,193.670 109.460,193.200 108.800 C 192.730 108.140,192.256 107.600,192.146 107.600 C 192.036 107.600,192.330 108.140,192.800 108.800 M140.000 110.800 C 139.530 111.460,139.236 112.000,139.346 112.000 C 139.456 112.000,139.930 111.460,140.400 110.800 C 140.870 110.140,141.164 109.600,141.054 109.600 C 140.944 109.600,140.470 110.140,140.000 110.800 M135.061 118.900 C 135.163 119.065,138.072 119.203,141.524 119.206 C 144.976 119.209,148.029 119.357,148.308 119.535 C 148.716 119.793,148.795 128.862,148.708 165.153 C 148.649 190.066,148.717 210.033,148.860 209.524 C 149.410 207.572,149.237 119.728,148.682 119.268 C 148.095 118.781,134.764 118.421,135.061 118.900 M192.800 118.786 L 185.800 119.000 185.797 165.100 L 185.795 211.200 185.899 165.200 L 186.003 119.200 193.002 119.200 C 197.401 119.200,200.000 119.051,200.000 118.800 C 200.000 118.580,199.955 118.439,199.900 118.486 C 199.845 118.533,196.650 118.668,192.800 118.786 M271.491 126.689 C 272.201 126.777,273.461 126.779,274.291 126.692 C 275.121 126.605,274.540 126.533,273.000 126.531 C 271.460 126.529,270.781 126.600,271.491 126.689 M264.400 127.200 C 263.338 127.424,263.241 127.502,264.000 127.524 C 264.550 127.541,265.720 127.405,266.600 127.223 C 267.934 126.947,268.000 126.893,267.000 126.899 C 266.340 126.902,265.170 127.038,264.400 127.200 M281.505 127.483 C 282.002 127.579,282.722 127.575,283.105 127.475 C 283.487 127.375,283.080 127.296,282.200 127.301 C 281.320 127.305,281.007 127.387,281.505 127.483 M285.400 128.000 C 286.596 128.514,287.595 128.514,286.800 128.000 C 286.470 127.787,285.840 127.622,285.400 127.634 L 284.600 127.656 285.400 128.000 M234.224 139.013 C 233.796 139.336,233.627 139.600,233.847 139.600 C 234.067 139.600,234.596 139.336,235.024 139.013 C 235.451 138.690,235.620 138.425,235.400 138.425 C 235.180 138.425,234.651 138.690,234.224 139.013 M59.384 139.700 C 59.279 139.975,59.240 156.220,59.297 175.800 L 59.400 211.400 59.600 175.300 C 59.710 155.445,59.749 139.200,59.687 139.200 C 59.626 139.200,59.489 139.425,59.384 139.700 M96.000 174.520 L 96.200 209.800 96.302 174.822 C 96.358 155.584,96.268 139.708,96.102 139.542 C 95.936 139.376,95.890 155.116,96.000 174.520 M316.013 142.300 C 316.019 142.465,316.514 142.946,317.113 143.368 L 318.200 144.136 317.230 143.068 C 316.211 141.946,315.992 141.807,316.013 142.300 M227.978 144.300 L 226.600 145.800 228.100 144.422 C 229.496 143.138,229.784 142.800,229.478 142.800 C 229.412 142.800,228.737 143.475,227.978 144.300 M223.578 148.700 L 222.200 150.200 223.700 148.822 C 225.096 147.538,225.384 147.200,225.078 147.200 C 225.012 147.200,224.337 147.875,223.578 148.700 M221.201 151.398 C 220.686 151.948,220.339 152.464,220.432 152.546 C 220.524 152.628,221.019 152.178,221.530 151.547 C 222.676 150.135,222.474 150.044,221.201 151.398 M328.000 155.400 C 328.681 156.390,329.328 157.200,329.438 157.200 C 329.548 157.200,329.081 156.390,328.400 155.400 C 327.719 154.410,327.072 153.600,326.962 153.600 C 326.852 153.600,327.319 154.410,328.000 155.400 M272.705 163.883 C 273.202 163.979,273.922 163.975,274.305 163.875 C 274.687 163.775,274.280 163.696,273.400 163.701 C 272.520 163.705,272.207 163.787,272.705 163.883 M266.400 164.400 C 265.867 164.745,265.867 164.788,266.400 164.788 C 266.730 164.788,267.270 164.613,267.600 164.400 C 268.133 164.055,268.133 164.012,267.600 164.012 C 267.270 164.012,266.730 164.187,266.400 164.400 M284.746 166.216 C 285.486 166.537,286.206 166.794,286.346 166.786 C 286.866 166.757,284.576 165.628,284.000 165.630 C 283.670 165.631,284.006 165.894,284.746 166.216 M290.200 169.057 C 292.237 170.864,292.987 171.391,292.202 170.463 C 291.766 169.948,291.047 169.341,290.604 169.114 C 290.162 168.887,289.980 168.862,290.200 169.057 M295.168 173.500 C 296.351 174.875,297.400 176.000,297.497 176.000 C 297.762 176.000,294.534 172.206,293.720 171.559 C 293.332 171.252,293.984 172.125,295.168 173.500 M338.258 178.000 C 338.575 179.725,338.802 180.051,338.794 178.767 C 338.791 178.235,338.611 177.530,338.394 177.200 C 338.118 176.778,338.077 177.015,338.258 178.000 M339.058 181.600 C 339.375 183.325,339.602 183.651,339.594 182.367 C 339.591 181.835,339.411 181.130,339.194 180.800 C 338.918 180.378,338.877 180.615,339.058 181.600 M206.600 186.000 C 206.446 186.910,206.404 187.738,206.507 187.840 C 206.610 187.943,206.813 187.277,206.960 186.360 C 207.107 185.443,207.148 184.615,207.053 184.520 C 206.958 184.424,206.754 185.090,206.600 186.000 M302.068 185.800 C 302.062 186.240,302.211 186.960,302.400 187.400 C 302.838 188.419,302.838 187.368,302.400 186.000 C 302.143 185.196,302.077 185.157,302.068 185.800 M339.894 188.000 C 340.014 189.430,340.177 190.675,340.256 190.767 C 340.535 191.089,340.316 187.388,339.998 186.400 C 339.805 185.800,339.763 186.440,339.894 188.000 M302.914 190.200 C 302.917 191.300,302.995 191.703,303.087 191.095 C 303.179 190.486,303.177 189.586,303.082 189.095 C 302.987 188.603,302.911 189.100,302.914 190.200 M206.097 256.876 C 206.044 294.208,206.135 324.836,206.300 324.938 C 206.571 325.106,206.570 278.175,206.297 213.400 C 206.240 199.980,206.150 219.544,206.097 256.876 M243.071 192.300 C 242.943 193.565,242.976 195.320,243.145 196.200 C 243.380 197.422,243.457 196.879,243.472 193.900 C 243.494 189.425,243.400 189.050,243.071 192.300 M302.914 197.400 C 302.917 198.500,302.995 198.903,303.087 198.295 C 303.179 197.686,303.177 196.786,303.082 196.295 C 302.987 195.803,302.911 196.300,302.914 197.400 M340.063 197.800 C 340.023 198.460,339.904 199.720,339.797 200.600 L 339.603 202.200 340.023 200.860 C 340.254 200.123,340.374 198.863,340.289 198.060 C 340.152 196.766,340.126 196.737,340.063 197.800 M244.416 202.654 C 244.407 202.904,244.663 203.714,244.984 204.454 C 245.306 205.194,245.576 205.596,245.584 205.346 C 245.593 205.096,245.337 204.286,245.016 203.546 C 244.694 202.806,244.424 202.404,244.416 202.654 M339.254 205.067 C 339.225 205.544,339.096 206.264,338.970 206.667 C 338.752 207.361,338.764 207.362,339.196 206.688 C 339.447 206.297,339.575 205.577,339.481 205.088 C 339.309 204.201,339.309 204.201,339.254 205.067 M185.249 214.200 C 185.216 214.640,185.096 215.450,184.983 216.000 L 184.777 217.000 185.206 216.019 C 185.442 215.479,185.561 214.669,185.472 214.219 C 185.313 213.421,185.307 213.421,185.249 214.200 M294.378 215.100 L 293.000 216.600 294.500 215.222 C 295.325 214.463,296.000 213.788,296.000 213.722 C 296.000 213.416,295.662 213.704,294.378 215.100 M59.606 216.033 C 59.609 216.565,59.789 217.270,60.006 217.600 C 60.282 218.022,60.323 217.785,60.142 216.800 C 59.825 215.075,59.598 214.749,59.606 216.033 M184.446 219.067 C 184.421 219.324,184.284 219.864,184.141 220.267 C 183.940 220.836,183.994 220.897,184.379 220.542 C 184.652 220.291,184.789 219.751,184.684 219.342 C 184.579 218.934,184.472 218.810,184.446 219.067 M60.400 220.176 C 60.400 220.713,60.547 221.244,60.728 221.355 C 60.908 221.467,60.977 221.027,60.882 220.379 C 60.672 218.949,60.400 218.835,60.400 220.176 M144.364 220.900 C 143.874 221.615,142.917 222.828,142.237 223.596 C 141.036 224.952,141.033 224.963,142.142 223.996 C 143.255 223.026,145.830 219.600,145.446 219.600 C 145.341 219.600,144.854 220.185,144.364 220.900 M266.900 223.476 C 267.285 223.576,267.915 223.576,268.300 223.476 C 268.685 223.375,268.370 223.293,267.600 223.293 C 266.830 223.293,266.515 223.375,266.900 223.476 M278.100 223.476 C 278.485 223.576,279.115 223.576,279.500 223.476 C 279.885 223.375,279.570 223.293,278.800 223.293 C 278.030 223.293,277.715 223.375,278.100 223.476 M271.692 224.125 C 272.768 224.329,274.210 224.335,275.037 224.140 C 276.231 223.857,275.894 223.793,273.146 223.781 C 270.053 223.767,269.943 223.793,271.692 224.125 M112.746 231.016 C 113.486 231.337,114.206 231.594,114.346 231.586 C 114.866 231.557,112.576 230.428,112.000 230.430 C 111.670 230.431,112.006 230.694,112.746 231.016 M327.600 232.800 C 327.130 233.460,326.836 234.000,326.946 234.000 C 327.056 234.000,327.530 233.460,328.000 232.800 C 328.470 232.140,328.764 231.600,328.654 231.600 C 328.544 231.600,328.070 232.140,327.600 232.800 M120.713 232.695 C 121.876 232.776,123.676 232.776,124.713 232.693 C 125.751 232.611,124.800 232.545,122.600 232.546 C 120.400 232.547,119.551 232.614,120.713 232.695 M172.383 245.300 C 171.640 246.235,171.348 246.746,171.735 246.436 C 172.463 245.851,174.177 243.600,173.894 243.600 C 173.806 243.600,173.126 244.365,172.383 245.300 M312.200 248.250 C 311.481 248.862,311.334 249.105,311.833 248.857 C 312.566 248.493,313.941 247.176,313.549 247.214 C 313.467 247.222,312.860 247.688,312.200 248.250 M164.035 254.035 C 162.696 255.154,161.600 256.166,161.600 256.283 C 161.600 256.401,162.635 255.633,163.900 254.577 C 167.038 251.957,166.991 252.000,166.715 252.000 C 166.580 252.000,165.374 252.916,164.035 254.035 M242.704 289.362 C 242.647 309.031,242.735 325.040,242.900 324.938 C 243.065 324.836,243.200 308.923,243.200 289.576 C 243.200 256.344,243.239 254.400,243.900 254.394 C 244.615 254.388,243.841 253.621,243.104 253.606 C 242.942 253.603,242.762 269.693,242.704 289.362 M81.567 254.945 C 82.100 255.601,83.600 256.593,83.600 256.289 C 83.600 256.213,83.015 255.722,82.300 255.199 C 81.496 254.610,81.216 254.513,81.567 254.945 M259.400 259.600 C 259.840 259.789,260.560 259.938,261.000 259.932 C 261.643 259.923,261.604 259.857,260.800 259.600 C 259.432 259.162,258.381 259.162,259.400 259.600 M285.800 259.600 C 284.693 259.882,284.677 259.909,285.600 259.947 C 286.150 259.969,286.870 259.813,287.200 259.600 C 287.881 259.160,287.529 259.160,285.800 259.600 M264.200 260.400 C 264.640 260.589,265.540 260.735,266.200 260.725 L 267.400 260.705 266.200 260.400 C 265.540 260.232,264.640 260.086,264.200 260.075 L 263.400 260.056 264.200 260.400 M280.600 260.400 C 279.522 260.674,279.502 260.706,280.400 260.713 C 280.950 260.717,281.850 260.576,282.400 260.400 C 283.744 259.969,282.292 259.969,280.600 260.400 M111.700 269.076 C 112.085 269.176,112.715 269.176,113.100 269.076 C 113.485 268.975,113.170 268.893,112.400 268.893 C 111.630 268.893,111.315 268.975,111.700 269.076 M131.905 269.083 C 132.402 269.179,133.122 269.175,133.505 269.075 C 133.887 268.975,133.480 268.896,132.600 268.901 C 131.720 268.905,131.407 268.987,131.905 269.083 M120.117 269.897 C 121.611 269.974,123.951 269.974,125.317 269.896 C 126.682 269.818,125.460 269.755,122.600 269.755 C 119.740 269.756,118.622 269.820,120.117 269.897 " stroke="none" fill="#517ebe" fill-rule="evenodd"></path><path id="path2" d="M166.384 76.300 C 166.057 76.685,164.444 78.800,162.799 81.000 C 161.155 83.200,159.711 85.090,159.591 85.200 C 159.471 85.310,158.490 86.660,157.411 88.200 C 156.331 89.740,155.340 91.090,155.209 91.200 C 154.918 91.443,152.908 94.093,144.896 104.800 C 141.522 109.310,138.488 113.330,138.156 113.733 C 136.453 115.797,134.842 118.309,135.073 118.539 C 135.216 118.683,138.251 118.800,141.818 118.800 C 146.827 118.800,148.406 118.925,148.758 119.349 C 149.384 120.104,149.141 208.974,148.505 211.600 C 148.265 212.590,147.951 213.850,147.807 214.400 C 147.597 215.200,147.630 215.268,147.969 214.741 C 149.523 212.329,149.600 209.931,149.600 163.854 C 149.600 129.781,149.488 119.248,149.120 118.880 C 148.785 118.545,146.605 118.400,141.882 118.400 L 135.123 118.400 136.573 116.500 C 137.370 115.455,139.142 113.099,140.511 111.264 C 141.880 109.430,143.270 107.603,143.600 107.204 C 143.930 106.806,149.330 99.629,155.600 91.255 C 161.870 82.882,167.180 76.081,167.400 76.142 C 167.704 76.227,179.357 91.434,184.713 98.736 C 185.091 99.251,186.480 101.081,187.800 102.803 C 191.218 107.261,196.374 114.171,197.906 116.346 L 199.211 118.200 192.406 118.309 C 188.662 118.370,185.558 118.460,185.507 118.509 C 185.456 118.559,185.302 140.200,185.164 166.600 C 184.985 200.990,184.780 215.280,184.442 217.000 C 184.182 218.320,183.867 220.076,183.742 220.903 C 183.617 221.729,183.355 222.505,183.158 222.626 C 182.961 222.748,182.811 223.332,182.825 223.924 L 182.851 225.000 183.252 224.000 C 183.473 223.450,183.843 222.100,184.074 221.000 C 184.305 219.900,184.681 218.100,184.910 217.000 C 185.176 215.720,185.411 197.728,185.563 167.000 L 185.800 119.000 192.590 118.890 C 200.428 118.763,200.416 118.768,198.591 116.395 C 197.832 115.408,197.073 114.420,196.904 114.200 C 194.722 111.356,187.736 102.075,186.200 99.982 C 183.142 95.814,171.056 79.826,170.792 79.600 C 170.664 79.490,169.953 78.545,169.212 77.500 C 167.744 75.431,167.286 75.236,166.384 76.300 M266.800 127.182 C 266.030 127.335,268.550 127.472,272.400 127.488 C 280.493 127.522,284.530 128.058,292.800 130.196 C 293.522 130.383,293.633 130.348,293.200 130.071 C 289.889 127.949,272.527 126.049,266.800 127.182 M261.517 127.816 C 261.398 127.935,260.423 128.192,259.351 128.388 C 256.365 128.932,253.937 129.590,253.235 130.044 C 252.744 130.362,252.826 130.397,253.600 130.196 C 256.854 129.355,259.329 128.818,263.600 128.027 L 265.400 127.694 263.567 127.647 C 262.558 127.621,261.636 127.697,261.517 127.816 M250.400 130.777 C 250.070 130.959,249.350 131.284,248.800 131.499 C 245.262 132.886,237.770 136.852,235.600 138.486 C 227.925 144.268,222.129 149.891,219.353 154.248 C 218.949 154.882,218.509 155.490,218.375 155.600 C 217.163 156.595,210.800 168.746,210.800 170.066 C 210.800 170.444,210.641 170.851,210.448 170.970 C 210.254 171.090,209.999 171.596,209.881 172.094 C 209.763 172.592,209.376 173.990,209.022 175.200 C 207.783 179.436,207.171 182.963,206.629 189.000 C 206.321 192.432,207.007 189.665,207.571 185.200 C 208.658 176.606,209.964 172.154,213.559 164.800 C 217.760 156.206,222.711 149.755,229.800 143.641 C 236.222 138.102,243.028 134.017,249.900 131.580 C 251.275 131.092,252.400 130.627,252.400 130.546 C 252.400 130.281,251.011 130.441,250.400 130.777 M294.400 130.800 C 295.188 131.309,296.115 131.309,295.800 130.800 C 295.664 130.580,295.158 130.403,294.676 130.406 C 293.964 130.411,293.912 130.485,294.400 130.800 M297.600 131.845 C 302.094 133.858,306.846 136.310,308.501 137.469 C 309.546 138.201,310.566 138.800,310.768 138.800 C 310.969 138.800,311.193 138.935,311.267 139.100 C 311.340 139.265,312.480 140.191,313.800 141.158 C 320.404 145.995,329.395 156.940,332.892 164.400 C 333.459 165.610,334.300 167.399,334.761 168.375 C 335.223 169.351,335.600 170.389,335.600 170.681 C 335.600 170.972,335.765 171.523,335.967 171.905 C 336.321 172.577,337.297 175.822,337.834 178.119 C 337.978 178.734,338.189 179.144,338.303 179.030 C 338.511 178.822,337.803 175.699,337.209 174.200 C 337.034 173.760,336.657 172.590,336.370 171.600 C 331.741 155.614,316.085 139.131,298.585 131.820 C 296.645 131.009,295.783 131.031,297.600 131.845 M59.871 139.463 C 58.386 140.948,59.866 220.487,61.406 221.918 C 61.573 222.073,61.586 221.660,61.434 221.000 C 61.283 220.340,61.056 218.852,60.930 217.693 C 60.803 216.534,60.542 215.488,60.350 215.369 C 60.154 215.248,60.000 198.520,60.000 177.376 L 60.000 139.600 77.788 139.600 L 95.575 139.600 95.688 175.500 C 95.775 203.471,95.912 211.621,96.306 212.400 C 96.785 213.346,96.797 213.325,96.542 212.000 C 96.393 211.230,96.165 194.580,96.036 175.000 L 95.800 139.400 77.971 139.296 C 68.165 139.239,60.020 139.314,59.871 139.463 M272.000 163.191 C 271.450 163.372,270.168 163.538,269.151 163.560 C 267.296 163.600,261.332 165.324,260.620 166.026 C 260.411 166.231,259.916 166.400,259.520 166.400 C 259.124 166.400,258.800 166.580,258.800 166.800 C 258.800 167.020,258.607 167.200,258.372 167.200 C 255.652 167.200,244.551 179.452,245.282 181.647 C 245.347 181.842,245.837 181.146,246.370 180.101 C 247.446 177.990,251.139 172.933,252.286 172.000 C 255.794 169.145,256.771 168.400,257.006 168.400 C 257.155 168.400,257.754 168.071,258.338 167.668 C 263.511 164.104,274.353 162.712,281.200 164.733 C 284.256 165.635,284.679 165.705,283.833 165.170 C 282.754 164.488,280.654 163.973,277.400 163.592 C 275.860 163.412,274.240 163.174,273.800 163.063 C 273.360 162.953,272.550 163.010,272.000 163.191 M287.024 167.035 C 290.358 169.050,291.212 169.422,289.859 168.274 C 288.572 167.181,285.750 165.600,285.086 165.600 C 284.844 165.600,285.716 166.246,287.024 167.035 M293.845 171.828 C 298.381 176.247,301.418 181.595,302.914 187.800 C 303.101 188.572,303.109 188.571,303.154 187.766 C 303.216 186.652,301.810 182.432,300.669 180.308 C 299.417 177.978,298.639 176.639,298.398 176.400 C 298.286 176.290,297.665 175.480,297.016 174.600 C 295.736 172.865,294.088 171.260,292.200 169.912 C 291.540 169.441,292.280 170.303,293.845 171.828 M338.592 181.000 C 338.691 181.880,338.996 184.400,339.269 186.600 C 339.880 191.510,339.878 196.201,339.263 201.200 C 338.392 208.286,338.385 208.397,338.968 206.000 C 340.587 199.341,340.501 185.733,338.808 180.600 C 338.436 179.472,338.423 179.496,338.592 181.000 M244.666 182.700 C 243.890 183.988,242.801 189.232,242.527 193.000 C 241.840 202.453,248.982 215.567,257.179 219.903 C 260.304 221.555,260.993 221.900,262.000 222.311 C 264.623 223.382,265.600 223.666,266.080 223.494 C 266.366 223.392,265.790 223.090,264.800 222.824 C 248.479 218.425,238.598 198.605,244.997 183.100 C 245.279 182.415,245.024 182.106,244.666 182.700 M303.350 193.600 C 303.362 198.055,303.403 198.349,303.728 196.295 C 303.951 194.885,303.946 192.943,303.715 191.295 C 303.357 188.737,303.338 188.855,303.350 193.600 M302.846 199.713 C 302.277 208.459,291.532 220.147,281.600 222.824 C 280.610 223.090,280.034 223.392,280.320 223.494 C 281.341 223.859,287.582 221.102,291.031 218.763 C 292.714 217.621,297.600 212.845,297.600 212.341 C 297.600 212.185,297.846 211.811,298.146 211.511 C 299.916 209.741,303.473 201.230,303.078 199.710 C 302.901 199.032,302.891 199.032,302.846 199.713 M337.854 209.403 C 337.484 210.975,336.424 214.688,335.912 216.200 C 334.910 219.164,332.201 224.830,330.520 227.481 C 329.794 228.625,329.200 229.735,329.200 229.947 C 329.200 230.160,329.062 230.393,328.893 230.467 C 328.724 230.540,327.877 231.590,327.011 232.800 C 323.822 237.252,319.548 241.891,316.000 244.750 C 315.010 245.547,314.110 246.296,314.000 246.413 C 313.568 246.873,309.679 249.600,309.454 249.600 C 309.323 249.600,308.241 250.223,307.050 250.985 C 304.492 252.622,297.475 256.000,296.634 256.000 C 296.311 256.000,295.949 256.159,295.829 256.354 C 295.708 256.549,295.113 256.806,294.505 256.925 C 292.377 257.343,288.208 258.743,289.005 258.772 C 289.448 258.787,291.176 258.366,292.847 257.836 C 311.135 252.032,325.156 239.900,333.594 222.580 C 335.977 217.688,338.668 209.805,338.316 208.749 C 338.217 208.451,338.009 208.745,337.854 209.403 M146.443 217.697 C 145.918 218.854,145.141 220.295,144.717 220.900 C 144.293 221.505,144.093 221.999,144.273 221.997 C 144.852 221.993,147.743 216.629,147.523 215.968 C 147.454 215.762,146.968 216.540,146.443 217.697 M97.600 216.236 C 97.600 218.480,104.572 227.493,106.873 228.223 C 107.273 228.350,107.600 228.599,107.600 228.776 C 107.600 229.554,114.116 232.259,117.400 232.845 C 121.870 233.643,123.003 233.691,125.740 233.205 C 129.930 232.460,134.639 230.847,132.724 230.812 C 132.352 230.805,131.955 230.949,131.842 231.132 C 130.776 232.856,118.637 233.101,114.066 231.490 C 107.389 229.137,102.098 224.524,98.835 218.211 C 98.156 216.897,97.600 216.008,97.600 216.236 M61.614 223.081 C 61.606 223.566,61.768 224.376,61.974 224.881 C 62.180 225.387,62.918 227.326,63.614 229.190 C 69.485 244.919,83.063 258.857,98.400 264.899 C 98.950 265.116,99.713 265.452,100.095 265.647 C 100.981 266.098,101.894 266.116,101.380 265.672 C 101.171 265.492,99.650 264.830,98.000 264.202 C 94.495 262.866,85.841 257.896,84.400 256.391 C 84.290 256.276,83.128 255.286,81.818 254.191 C 73.407 247.162,66.877 237.537,63.169 226.704 C 62.321 224.227,61.621 222.597,61.614 223.081 M140.578 225.514 C 138.805 227.211,136.499 229.023,135.452 229.541 C 134.405 230.058,133.645 230.578,133.763 230.696 C 134.396 231.329,141.511 225.972,143.214 223.581 C 144.416 221.893,144.176 222.068,140.578 225.514 M268.000 224.032 C 269.853 224.586,276.683 224.589,278.200 224.037 C 279.218 223.666,279.065 223.640,277.200 223.864 C 274.391 224.200,272.444 224.203,269.200 223.876 C 267.038 223.658,266.836 223.684,268.000 224.032 M182.020 226.487 C 181.753 227.209,181.368 228.113,181.167 228.495 C 180.965 228.877,180.800 229.393,180.800 229.642 C 180.800 230.792,175.287 241.134,173.999 242.400 C 173.887 242.510,172.994 243.680,172.014 245.000 C 168.172 250.174,160.100 257.302,154.516 260.451 C 150.519 262.704,147.951 263.948,145.200 264.960 C 143.550 265.567,141.840 266.216,141.400 266.402 C 140.960 266.588,140.150 266.833,139.600 266.948 C 133.347 268.249,131.933 268.618,132.759 268.735 C 134.034 268.916,138.594 267.797,143.400 266.123 C 151.410 263.333,168.292 252.501,168.414 250.072 C 168.421 249.923,169.332 248.810,170.438 247.600 C 172.360 245.496,177.600 238.051,177.600 237.424 C 177.600 237.259,177.934 236.646,178.341 236.062 C 179.276 234.723,182.987 225.653,182.712 225.379 C 182.600 225.266,182.288 225.765,182.020 226.487 M242.667 253.467 C 242.520 253.613,242.400 269.727,242.400 289.275 L 242.400 324.816 224.420 324.708 C 214.531 324.649,206.577 324.737,206.744 324.904 C 206.911 325.072,215.048 325.162,224.824 325.104 L 242.600 325.000 242.702 289.300 C 242.758 269.665,242.893 253.600,243.000 253.600 C 243.108 253.600,244.502 254.203,246.098 254.939 C 247.694 255.676,249.720 256.511,250.600 256.795 C 251.480 257.079,252.560 257.441,253.000 257.600 C 255.180 258.388,256.730 258.797,257.428 258.768 C 258.324 258.732,257.653 258.477,253.800 257.395 C 252.480 257.024,251.040 256.576,250.600 256.401 C 249.225 255.852,246.666 254.726,245.025 253.947 C 243.288 253.123,243.057 253.076,242.667 253.467 M260.400 259.380 C 267.725 261.234,282.951 261.112,287.334 259.164 C 287.982 258.876,287.797 258.844,286.600 259.037 C 279.472 260.188,268.447 260.751,267.014 260.038 C 266.566 259.815,265.120 259.547,263.800 259.443 C 262.480 259.338,260.680 259.156,259.800 259.038 C 258.625 258.880,258.785 258.971,260.400 259.380 M102.435 266.395 C 103.398 266.959,108.940 268.320,111.400 268.597 C 112.498 268.721,112.247 268.596,110.600 268.198 C 109.280 267.879,107.647 267.434,106.972 267.209 C 106.296 266.984,105.362 266.800,104.895 266.800 C 104.429 266.800,103.936 266.620,103.800 266.400 C 103.664 266.180,103.158 266.005,102.676 266.012 C 101.947 266.022,101.906 266.086,102.435 266.395 M115.029 269.275 C 116.965 269.619,128.557 269.600,130.190 269.251 C 130.844 269.110,127.347 268.996,122.418 268.996 C 117.490 268.996,114.164 269.121,115.029 269.275 " stroke="none" fill="#8ca4d4" fill-rule="evenodd"></path><path id="path3" d="M180.416 0.269 C 177.608 0.358,175.320 0.606,175.177 0.837 C 175.037 1.064,173.545 1.274,171.861 1.305 C 169.646 1.345,168.800 1.504,168.800 1.880 C 168.800 2.257,168.030 2.400,166.000 2.400 C 164.400 2.400,163.200 2.571,163.200 2.800 C 163.200 3.020,162.210 3.200,161.000 3.200 C 159.790 3.200,158.800 3.380,158.800 3.600 C 158.800 3.820,157.810 4.000,156.600 4.000 C 155.107 4.000,154.400 4.161,154.400 4.500 C 154.400 4.828,153.840 4.979,152.772 4.940 C 151.701 4.900,151.071 5.071,150.929 5.440 C 150.790 5.802,150.095 6.000,148.957 6.000 C 147.991 6.000,147.200 6.180,147.200 6.400 C 147.200 6.620,146.390 6.800,145.400 6.800 C 144.410 6.800,143.600 6.980,143.600 7.200 C 143.600 7.420,142.970 7.600,142.200 7.600 C 141.430 7.600,140.800 7.772,140.800 7.982 C 140.800 8.192,140.170 8.482,139.400 8.626 C 138.630 8.771,138.000 9.049,138.000 9.245 C 138.000 9.440,137.370 9.600,136.600 9.600 C 135.830 9.600,135.200 9.780,135.200 10.000 C 135.200 10.220,134.671 10.400,134.024 10.400 C 133.377 10.400,132.736 10.580,132.600 10.800 C 132.464 11.020,131.823 11.200,131.176 11.200 C 130.397 11.200,130.000 11.403,130.000 11.800 C 130.000 12.219,129.578 12.400,128.600 12.400 C 127.830 12.400,127.200 12.580,127.200 12.800 C 127.200 13.020,126.750 13.200,126.200 13.200 C 125.650 13.200,125.200 13.380,125.200 13.600 C 125.200 13.820,124.660 14.000,124.000 14.000 C 123.340 14.000,122.800 14.180,122.800 14.400 C 122.800 14.620,122.350 14.800,121.800 14.800 C 121.178 14.800,120.800 15.027,120.800 15.400 C 120.800 15.733,120.444 16.000,120.000 16.000 C 119.560 16.000,119.200 16.180,119.200 16.400 C 119.200 16.620,118.570 16.800,117.800 16.800 C 117.030 16.800,116.400 16.980,116.400 17.200 C 116.400 17.420,115.950 17.600,115.400 17.600 C 114.850 17.600,114.400 17.780,114.400 18.000 C 114.400 18.220,114.040 18.400,113.600 18.400 C 113.156 18.400,112.800 18.667,112.800 19.000 C 112.800 19.373,112.422 19.600,111.800 19.600 C 111.250 19.600,110.800 19.780,110.800 20.000 C 110.800 20.220,110.440 20.400,110.000 20.400 C 109.560 20.400,109.200 20.580,109.200 20.800 C 109.200 21.020,108.750 21.200,108.200 21.200 C 107.650 21.200,107.200 21.380,107.200 21.600 C 107.200 21.820,106.924 22.000,106.587 22.000 C 106.251 22.000,105.871 22.270,105.745 22.600 C 105.618 22.930,105.084 23.200,104.557 23.200 C 104.031 23.200,103.600 23.380,103.600 23.600 C 103.600 23.820,103.240 24.000,102.800 24.000 C 102.360 24.000,102.000 24.180,102.000 24.400 C 102.000 24.620,101.807 24.800,101.571 24.800 C 101.336 24.800,100.892 25.025,100.585 25.300 C 99.176 26.564,98.786 26.800,98.105 26.800 C 97.704 26.800,97.117 27.160,96.800 27.600 C 96.483 28.040,95.897 28.400,95.499 28.400 C 95.101 28.400,94.671 28.670,94.545 29.000 C 94.418 29.330,94.013 29.600,93.646 29.600 C 93.278 29.600,92.717 29.960,92.400 30.400 C 92.083 30.840,91.490 31.200,91.083 31.200 C 90.272 31.200,89.200 32.094,89.200 32.771 C 89.200 33.007,88.790 33.200,88.288 33.200 C 87.787 33.200,87.117 33.560,86.800 34.000 C 86.483 34.440,85.903 34.800,85.512 34.800 C 85.120 34.800,84.800 34.980,84.800 35.200 C 84.800 35.420,84.530 35.600,84.200 35.600 C 83.870 35.600,83.600 35.870,83.600 36.200 C 83.600 36.530,83.280 36.800,82.888 36.800 C 82.497 36.800,81.917 37.160,81.600 37.600 C 81.283 38.040,80.870 38.400,80.683 38.400 C 80.496 38.400,80.106 38.625,79.816 38.900 C 79.526 39.175,78.789 39.760,78.178 40.200 C 77.568 40.640,76.841 41.225,76.563 41.500 C 76.285 41.775,75.774 42.000,75.429 42.000 C 75.083 42.000,74.800 42.270,74.800 42.600 C 74.800 42.930,74.519 43.200,74.176 43.200 C 73.833 43.200,73.664 43.380,73.800 43.600 C 73.936 43.820,73.848 44.000,73.605 44.000 C 73.045 44.000,71.200 45.826,71.200 46.382 C 71.200 46.612,70.822 46.800,70.360 46.800 C 69.899 46.800,69.017 47.340,68.400 48.000 C 67.783 48.660,67.081 49.200,66.840 49.200 C 66.598 49.200,66.400 49.386,66.400 49.613 C 66.400 50.151,63.751 52.800,63.213 52.800 C 62.986 52.800,62.800 53.070,62.800 53.400 C 62.800 53.730,62.526 54.000,62.190 54.000 C 61.499 54.000,52.800 62.511,52.800 63.187 C 52.800 63.744,50.166 66.400,49.613 66.400 C 49.386 66.400,49.200 66.598,49.200 66.840 C 49.200 67.081,48.390 68.044,47.400 68.980 C 46.410 69.915,45.600 70.897,45.600 71.163 C 45.600 71.429,44.790 72.445,43.800 73.421 C 42.810 74.397,42.000 75.427,42.000 75.709 C 42.000 75.992,41.640 76.483,41.200 76.800 C 40.760 77.117,40.400 77.588,40.400 77.846 C 40.400 78.103,40.130 78.418,39.800 78.545 C 39.470 78.671,39.200 79.051,39.200 79.387 C 39.200 79.724,39.020 80.000,38.800 80.000 C 38.580 80.000,38.400 80.230,38.400 80.512 C 38.400 80.793,38.040 81.283,37.600 81.600 C 37.160 81.917,36.800 82.497,36.800 82.888 C 36.800 83.280,36.511 83.600,36.157 83.600 C 35.750 83.600,35.599 83.820,35.745 84.200 C 35.871 84.530,35.788 84.800,35.559 84.800 C 34.932 84.800,34.000 85.859,34.000 86.571 C 34.000 86.917,33.820 87.200,33.600 87.200 C 33.380 87.200,33.200 87.470,33.200 87.800 C 33.200 88.130,32.930 88.400,32.600 88.400 C 32.270 88.400,32.000 88.678,32.000 89.017 C 32.000 89.356,31.640 90.020,31.200 90.492 C 30.760 90.964,30.400 91.677,30.400 92.075 C 30.400 92.474,30.220 92.800,30.000 92.800 C 29.780 92.800,29.600 93.079,29.600 93.419 C 29.600 93.760,29.150 94.455,28.600 94.965 C 28.050 95.475,27.600 96.186,27.600 96.546 C 27.600 96.906,27.420 97.200,27.200 97.200 C 26.980 97.200,26.800 97.579,26.800 98.042 C 26.800 98.506,26.350 99.239,25.800 99.671 C 25.250 100.104,24.800 100.805,24.800 101.229 C 24.800 101.653,24.620 102.000,24.400 102.000 C 24.180 102.000,24.000 102.360,24.000 102.800 C 24.000 103.240,23.820 103.600,23.600 103.600 C 23.380 103.600,23.200 104.050,23.200 104.600 C 23.200 105.222,22.973 105.600,22.600 105.600 C 22.267 105.600,22.000 105.956,22.000 106.400 C 22.000 106.840,21.820 107.200,21.600 107.200 C 21.380 107.200,21.200 107.650,21.200 108.200 C 21.200 108.750,21.020 109.200,20.800 109.200 C 20.580 109.200,20.400 109.560,20.400 110.000 C 20.400 110.440,20.220 110.800,20.000 110.800 C 19.780 110.800,19.600 111.250,19.600 111.800 C 19.600 112.439,19.375 112.800,18.976 112.800 C 18.633 112.800,18.455 112.965,18.580 113.168 C 18.705 113.370,18.536 113.807,18.204 114.139 C 17.872 114.471,17.600 115.116,17.600 115.571 C 17.600 116.027,17.420 116.400,17.200 116.400 C 16.980 116.400,16.800 116.760,16.800 117.200 C 16.800 117.640,16.620 118.000,16.400 118.000 C 16.180 118.000,16.000 118.431,16.000 118.957 C 16.000 119.484,15.730 120.018,15.400 120.145 C 15.049 120.279,14.800 120.879,14.800 121.587 C 14.800 122.254,14.620 122.800,14.400 122.800 C 14.180 122.800,14.000 123.160,14.000 123.600 C 14.000 124.040,13.820 124.400,13.600 124.400 C 13.380 124.400,13.200 125.030,13.200 125.800 C 13.200 126.570,13.020 127.200,12.800 127.200 C 12.580 127.200,12.400 127.566,12.400 128.013 C 12.400 128.459,12.169 128.914,11.886 129.022 C 11.604 129.131,11.332 129.710,11.283 130.310 C 11.234 130.909,11.015 131.460,10.797 131.533 C 10.578 131.607,10.400 132.282,10.400 133.033 C 10.400 133.785,10.220 134.400,10.000 134.400 C 9.780 134.400,9.600 135.030,9.600 135.800 C 9.600 136.570,9.420 137.200,9.200 137.200 C 8.980 137.200,8.800 137.637,8.800 138.171 C 8.800 138.706,8.530 139.413,8.200 139.743 C 7.870 140.073,7.600 140.795,7.600 141.348 C 7.600 141.901,7.420 142.464,7.200 142.600 C 6.980 142.736,6.800 143.557,6.800 144.424 C 6.800 145.291,6.620 146.000,6.400 146.000 C 6.180 146.000,6.000 146.791,6.000 147.757 C 6.000 148.950,5.807 149.588,5.400 149.745 C 4.989 149.902,4.800 150.545,4.800 151.787 C 4.800 152.784,4.620 153.600,4.400 153.600 C 4.180 153.600,4.000 154.410,4.000 155.400 C 4.000 156.390,3.820 157.200,3.600 157.200 C 3.380 157.200,3.200 158.190,3.200 159.400 C 3.200 160.610,3.020 161.600,2.800 161.600 C 2.575 161.600,2.400 162.719,2.400 164.157 C 2.400 166.061,2.247 166.773,1.800 166.945 C 1.341 167.121,1.200 167.875,1.200 170.154 C 1.200 172.182,1.040 173.187,0.700 173.300 C -0.032 173.544,-0.032 226.286,0.700 226.738 C 1.019 226.935,1.216 228.102,1.245 229.953 C 1.276 232.032,1.447 232.920,1.844 233.072 C 2.238 233.224,2.400 234.030,2.400 235.843 C 2.400 237.281,2.575 238.400,2.800 238.400 C 3.020 238.400,3.200 239.390,3.200 240.600 C 3.200 241.810,3.380 242.800,3.600 242.800 C 3.820 242.800,4.000 243.599,4.000 244.576 C 4.000 245.553,4.180 246.464,4.400 246.600 C 4.620 246.736,4.800 247.562,4.800 248.436 C 4.800 249.480,5.006 250.104,5.400 250.255 C 5.807 250.412,6.000 251.050,6.000 252.243 C 6.000 253.209,6.180 254.000,6.400 254.000 C 6.620 254.000,6.800 254.709,6.800 255.576 C 6.800 256.443,6.980 257.264,7.200 257.400 C 7.420 257.536,7.600 258.177,7.600 258.824 C 7.600 259.471,7.772 260.000,7.982 260.000 C 8.192 260.000,8.482 260.630,8.626 261.400 C 8.771 262.170,9.049 262.800,9.245 262.800 C 9.440 262.800,9.600 263.430,9.600 264.200 C 9.600 264.970,9.780 265.600,10.000 265.600 C 10.220 265.600,10.400 266.215,10.400 266.967 C 10.400 267.718,10.578 268.393,10.797 268.467 C 11.015 268.540,11.234 269.091,11.283 269.690 C 11.332 270.290,11.604 270.869,11.886 270.978 C 12.169 271.086,12.400 271.541,12.400 271.987 C 12.400 272.434,12.580 272.800,12.800 272.800 C 13.020 272.800,13.200 273.430,13.200 274.200 C 13.200 274.970,13.380 275.600,13.600 275.600 C 13.820 275.600,14.000 275.960,14.000 276.400 C 14.000 276.840,14.180 277.200,14.400 277.200 C 14.620 277.200,14.800 277.746,14.800 278.413 C 14.800 279.121,15.049 279.721,15.400 279.855 C 15.730 279.982,16.000 280.516,16.000 281.043 C 16.000 281.569,16.180 282.000,16.400 282.000 C 16.620 282.000,16.800 282.360,16.800 282.800 C 16.800 283.240,16.980 283.600,17.200 283.600 C 17.420 283.600,17.600 283.973,17.600 284.429 C 17.600 284.884,17.872 285.529,18.204 285.861 C 18.536 286.193,18.705 286.630,18.580 286.832 C 18.455 287.035,18.633 287.200,18.976 287.200 C 19.375 287.200,19.600 287.561,19.600 288.200 C 19.600 288.750,19.780 289.200,20.000 289.200 C 20.220 289.200,20.400 289.560,20.400 290.000 C 20.400 290.440,20.580 290.800,20.800 290.800 C 21.020 290.800,21.200 291.250,21.200 291.800 C 21.200 292.350,21.380 292.800,21.600 292.800 C 21.820 292.800,22.000 293.160,22.000 293.600 C 22.000 294.044,22.267 294.400,22.600 294.400 C 22.973 294.400,23.200 294.778,23.200 295.400 C 23.200 295.950,23.380 296.400,23.600 296.400 C 23.820 296.400,24.000 296.760,24.000 297.200 C 24.000 297.640,24.180 298.000,24.400 298.000 C 24.620 298.000,24.800 298.347,24.800 298.771 C 24.800 299.195,25.250 299.896,25.800 300.329 C 26.350 300.761,26.800 301.494,26.800 301.958 C 26.800 302.421,26.980 302.800,27.200 302.800 C 27.420 302.800,27.600 303.094,27.600 303.454 C 27.600 303.814,28.050 304.525,28.600 305.035 C 29.150 305.545,29.600 306.240,29.600 306.581 C 29.600 306.921,29.780 307.200,30.000 307.200 C 30.220 307.200,30.400 307.526,30.400 307.925 C 30.400 308.323,30.760 309.036,31.200 309.508 C 31.640 309.980,32.000 310.644,32.000 310.983 C 32.000 311.322,32.270 311.600,32.600 311.600 C 32.930 311.600,33.200 311.870,33.200 312.200 C 33.200 312.530,33.380 312.800,33.600 312.800 C 33.820 312.800,34.000 313.120,34.000 313.512 C 34.000 313.903,34.360 314.483,34.800 314.800 C 35.240 315.117,35.600 315.607,35.600 315.888 C 35.600 316.170,35.870 316.400,36.200 316.400 C 36.533 316.400,36.800 316.756,36.800 317.200 C 36.800 317.640,36.980 318.000,37.200 318.000 C 37.420 318.000,37.600 318.270,37.600 318.600 C 37.600 318.930,37.780 319.200,38.000 319.200 C 38.220 319.200,38.400 319.483,38.400 319.829 C 38.400 320.547,39.334 321.600,39.971 321.600 C 40.207 321.600,40.400 321.870,40.400 322.200 C 40.400 322.530,40.580 322.800,40.800 322.800 C 41.020 322.800,41.200 323.074,41.200 323.409 C 41.200 323.744,42.190 324.992,43.400 326.183 C 44.610 327.374,45.600 328.567,45.600 328.834 C 45.600 329.101,46.410 330.085,47.400 331.020 C 48.390 331.956,49.200 332.919,49.200 333.160 C 49.200 333.402,49.388 333.600,49.618 333.600 C 50.230 333.600,52.000 335.471,52.000 336.117 C 52.000 336.421,52.805 337.374,53.789 338.235 C 54.773 339.096,55.583 340.025,55.589 340.300 C 55.595 340.575,55.881 340.800,56.224 340.800 C 56.567 340.800,56.736 340.980,56.600 341.200 C 56.464 341.420,56.556 341.600,56.805 341.600 C 57.290 341.600,58.400 342.575,58.400 343.000 C 58.400 343.364,59.478 344.398,59.871 344.411 C 60.052 344.417,60.904 345.227,61.765 346.211 C 62.626 347.195,63.579 348.000,63.883 348.000 C 64.529 348.000,66.400 349.770,66.400 350.382 C 66.400 350.612,66.598 350.800,66.840 350.800 C 67.081 350.800,68.044 351.610,68.980 352.600 C 69.915 353.590,70.899 354.400,71.167 354.400 C 71.435 354.400,72.431 355.210,73.379 356.200 C 74.328 357.190,75.356 358.000,75.664 358.000 C 75.972 358.000,76.483 358.360,76.800 358.800 C 77.117 359.240,77.607 359.600,77.888 359.600 C 78.170 359.600,78.400 359.870,78.400 360.200 C 78.400 360.533,78.756 360.800,79.200 360.800 C 79.640 360.800,80.000 360.980,80.000 361.200 C 80.000 361.420,80.230 361.600,80.512 361.600 C 80.793 361.600,81.283 361.960,81.600 362.400 C 81.917 362.840,82.497 363.200,82.888 363.200 C 83.280 363.200,83.600 363.470,83.600 363.800 C 83.600 364.130,83.830 364.400,84.112 364.400 C 84.393 364.400,84.883 364.760,85.200 365.200 C 85.517 365.640,86.097 366.000,86.488 366.000 C 86.880 366.000,87.200 366.180,87.200 366.400 C 87.200 366.620,87.470 366.800,87.800 366.800 C 88.130 366.800,88.400 367.070,88.400 367.400 C 88.400 367.733,88.756 368.000,89.200 368.000 C 89.640 368.000,90.000 368.180,90.000 368.400 C 90.000 368.620,90.410 368.800,90.912 368.800 C 91.413 368.800,92.083 369.160,92.400 369.600 C 92.717 370.040,93.215 370.400,93.507 370.400 C 93.799 370.400,94.455 370.850,94.965 371.400 C 95.475 371.950,96.186 372.400,96.546 372.400 C 96.906 372.400,97.200 372.580,97.200 372.800 C 97.200 373.020,97.650 373.200,98.200 373.200 C 98.750 373.200,99.200 373.405,99.200 373.656 C 99.200 374.271,100.435 375.172,101.300 375.187 C 101.685 375.194,102.000 375.380,102.000 375.600 C 102.000 375.820,102.360 376.000,102.800 376.000 C 103.240 376.000,103.600 376.180,103.600 376.400 C 103.600 376.620,104.050 376.800,104.600 376.800 C 105.222 376.800,105.600 377.027,105.600 377.400 C 105.600 377.733,105.956 378.000,106.400 378.000 C 106.840 378.000,107.200 378.180,107.200 378.400 C 107.200 378.620,107.650 378.800,108.200 378.800 C 108.750 378.800,109.200 378.980,109.200 379.200 C 109.200 379.420,109.560 379.600,110.000 379.600 C 110.440 379.600,110.800 379.780,110.800 380.000 C 110.800 380.220,111.250 380.400,111.800 380.400 C 112.422 380.400,112.800 380.627,112.800 381.000 C 112.800 381.333,113.156 381.600,113.600 381.600 C 114.040 381.600,114.400 381.780,114.400 382.000 C 114.400 382.220,114.850 382.400,115.400 382.400 C 115.950 382.400,116.400 382.580,116.400 382.800 C 116.400 383.020,116.861 383.200,117.424 383.200 C 118.004 383.200,118.340 383.373,118.200 383.600 C 118.053 383.838,118.529 384.000,119.376 384.000 C 120.375 384.000,120.800 384.179,120.800 384.600 C 120.800 384.973,121.178 385.200,121.800 385.200 C 122.350 385.200,122.800 385.380,122.800 385.600 C 122.800 385.820,123.340 386.000,124.000 386.000 C 124.660 386.000,125.200 386.180,125.200 386.400 C 125.200 386.620,125.650 386.800,126.200 386.800 C 126.750 386.800,127.200 386.980,127.200 387.200 C 127.200 387.420,127.830 387.600,128.600 387.600 C 129.578 387.600,130.000 387.781,130.000 388.200 C 130.000 388.530,130.349 388.800,130.776 388.800 C 131.203 388.800,131.664 388.980,131.800 389.200 C 131.936 389.420,132.577 389.600,133.224 389.600 C 133.871 389.600,134.400 389.780,134.400 390.000 C 134.400 390.220,134.953 390.400,135.629 390.400 C 136.304 390.400,137.127 390.670,137.457 391.000 C 137.787 391.330,138.674 391.600,139.429 391.600 C 140.183 391.600,140.800 391.780,140.800 392.000 C 140.800 392.220,141.430 392.400,142.200 392.400 C 142.970 392.400,143.600 392.580,143.600 392.800 C 143.600 393.020,144.410 393.200,145.400 393.200 C 146.390 393.200,147.200 393.380,147.200 393.600 C 147.200 393.820,147.753 394.000,148.429 394.000 C 149.104 394.000,149.927 394.270,150.257 394.600 C 150.610 394.953,151.587 395.200,152.629 395.200 C 153.603 395.200,154.400 395.380,154.400 395.600 C 154.400 395.820,155.210 396.000,156.200 396.000 C 157.190 396.000,158.000 396.180,158.000 396.400 C 158.000 396.620,158.990 396.800,160.200 396.800 C 161.410 396.800,162.400 396.980,162.400 397.200 C 162.400 397.429,163.600 397.600,165.200 397.600 C 167.422 397.600,168.000 397.724,168.000 398.200 C 168.000 398.683,168.619 398.800,171.167 398.800 C 173.344 398.800,174.385 398.956,174.500 399.300 C 174.631 399.693,180.009 399.800,199.600 399.800 C 219.191 399.800,224.569 399.693,224.700 399.300 C 224.815 398.956,225.856 398.800,228.033 398.800 C 230.581 398.800,231.200 398.683,231.200 398.200 C 231.200 397.724,231.778 397.600,234.000 397.600 C 235.600 397.600,236.800 397.429,236.800 397.200 C 236.800 396.980,237.790 396.800,239.000 396.800 C 240.210 396.800,241.200 396.620,241.200 396.400 C 241.200 396.180,242.190 396.000,243.400 396.000 C 244.610 396.000,245.600 395.820,245.600 395.600 C 245.600 395.380,246.410 395.200,247.400 395.200 C 248.733 395.200,249.200 395.044,249.200 394.600 C 249.200 394.156,249.667 394.000,251.000 394.000 C 251.990 394.000,252.800 393.820,252.800 393.600 C 252.800 393.380,253.430 393.200,254.200 393.200 C 254.970 393.200,255.600 393.020,255.600 392.800 C 255.600 392.580,256.410 392.400,257.400 392.400 C 258.390 392.400,259.200 392.220,259.200 392.000 C 259.200 391.780,259.746 391.600,260.413 391.600 C 261.121 391.600,261.721 391.351,261.855 391.000 C 261.997 390.630,262.605 390.400,263.443 390.400 C 264.189 390.400,264.800 390.220,264.800 390.000 C 264.800 389.780,265.329 389.600,265.976 389.600 C 266.623 389.600,267.264 389.420,267.400 389.200 C 267.536 388.980,268.177 388.800,268.824 388.800 C 269.603 388.800,270.000 388.597,270.000 388.200 C 270.000 387.827,270.378 387.600,271.000 387.600 C 271.550 387.600,272.000 387.420,272.000 387.200 C 272.000 386.980,272.630 386.800,273.400 386.800 C 274.170 386.800,274.800 386.620,274.800 386.400 C 274.800 386.180,275.160 386.000,275.600 386.000 C 276.040 386.000,276.400 385.820,276.400 385.600 C 276.400 385.380,276.946 385.200,277.613 385.200 C 278.321 385.200,278.921 384.951,279.055 384.600 C 279.182 384.270,279.626 384.000,280.043 384.000 C 280.459 384.000,280.800 383.820,280.800 383.600 C 280.800 383.380,281.250 383.200,281.800 383.200 C 282.350 383.200,282.800 383.020,282.800 382.800 C 282.800 382.580,283.250 382.400,283.800 382.400 C 284.350 382.400,284.800 382.220,284.800 382.000 C 284.800 381.780,285.256 381.600,285.813 381.600 C 286.369 381.600,286.929 381.330,287.055 381.000 C 287.182 380.670,287.716 380.400,288.243 380.400 C 288.769 380.400,289.200 380.220,289.200 380.000 C 289.200 379.780,289.560 379.600,290.000 379.600 C 290.440 379.600,290.800 379.420,290.800 379.200 C 290.800 378.980,291.115 378.794,291.500 378.787 C 292.365 378.772,293.600 377.871,293.600 377.256 C 293.600 377.005,294.050 376.800,294.600 376.800 C 295.150 376.800,295.600 376.620,295.600 376.400 C 295.600 376.180,295.960 376.000,296.400 376.000 C 296.840 376.000,297.200 375.820,297.200 375.600 C 297.200 375.380,297.455 375.200,297.768 375.200 C 298.481 375.200,300.794 373.902,300.797 373.500 C 300.799 373.335,301.070 373.200,301.400 373.200 C 301.730 373.200,302.000 373.020,302.000 372.800 C 302.000 372.580,302.360 372.400,302.800 372.400 C 303.240 372.400,303.600 372.220,303.600 372.000 C 303.600 371.780,303.879 371.600,304.219 371.600 C 304.560 371.600,305.255 371.150,305.765 370.600 C 306.275 370.050,306.986 369.600,307.346 369.600 C 307.706 369.600,308.000 369.420,308.000 369.200 C 308.000 368.980,308.270 368.800,308.600 368.800 C 308.930 368.800,309.200 368.620,309.200 368.400 C 309.200 368.180,309.560 368.000,310.000 368.000 C 310.440 368.000,310.800 367.807,310.800 367.571 C 310.800 366.894,311.872 366.000,312.683 366.000 C 313.090 366.000,313.683 365.640,314.000 365.200 C 314.317 364.760,314.872 364.400,315.232 364.400 C 315.593 364.400,316.226 363.950,316.639 363.400 C 317.052 362.850,317.707 362.400,318.095 362.400 C 318.483 362.400,318.800 362.220,318.800 362.000 C 318.800 361.780,318.993 361.600,319.229 361.600 C 319.782 361.600,320.800 360.582,320.800 360.029 C 320.800 359.793,321.160 359.600,321.600 359.600 C 322.040 359.600,322.400 359.420,322.400 359.200 C 322.400 358.980,322.588 358.800,322.818 358.800 C 323.361 358.800,325.200 356.961,325.200 356.418 C 325.200 356.188,325.568 356.000,326.018 356.000 C 326.869 356.000,328.800 354.347,328.800 353.618 C 328.800 353.388,328.998 353.200,329.240 353.200 C 329.481 353.200,330.183 352.660,330.800 352.000 C 331.417 351.340,332.146 350.800,332.421 350.800 C 332.695 350.800,333.685 349.990,334.620 349.000 C 335.556 348.010,336.519 347.200,336.760 347.200 C 337.002 347.200,337.200 347.012,337.200 346.782 C 337.200 346.336,338.996 344.400,339.410 344.400 C 339.731 344.400,340.800 343.331,340.800 343.010 C 340.800 342.689,342.689 340.800,343.010 340.800 C 343.329 340.800,344.400 339.731,344.400 339.413 C 344.400 339.279,345.840 337.754,347.600 336.024 C 349.360 334.295,350.800 332.664,350.800 332.400 C 350.800 332.137,351.340 331.417,352.000 330.800 C 352.660 330.183,353.200 329.481,353.200 329.240 C 353.200 328.998,353.393 328.800,353.629 328.800 C 354.266 328.800,355.200 327.747,355.200 327.029 C 355.200 326.683,355.380 326.400,355.600 326.400 C 355.820 326.400,356.000 326.130,356.000 325.800 C 356.000 325.470,356.188 325.200,356.418 325.200 C 357.073 325.200,358.800 323.308,358.800 322.590 C 358.800 321.951,359.701 320.800,360.200 320.800 C 360.723 320.800,361.600 319.634,361.609 318.929 C 361.613 318.528,362.243 317.662,363.009 317.004 C 363.774 316.346,364.400 315.531,364.400 315.192 C 364.400 314.854,364.760 314.317,365.200 314.000 C 365.640 313.683,366.000 313.056,366.000 312.607 C 366.000 312.157,366.450 311.452,367.000 311.039 C 367.550 310.626,368.000 310.043,368.000 309.744 C 368.000 309.445,368.180 309.200,368.400 309.200 C 368.620 309.200,368.800 308.930,368.800 308.600 C 368.800 308.270,368.980 308.000,369.200 308.000 C 369.420 308.000,369.600 307.640,369.600 307.200 C 369.600 306.760,369.780 306.400,370.000 306.400 C 370.220 306.400,370.400 305.950,370.400 305.400 C 370.400 304.850,370.593 304.400,370.829 304.400 C 371.466 304.400,372.400 303.347,372.400 302.629 C 372.400 302.283,372.580 302.000,372.800 302.000 C 373.020 302.000,373.200 301.550,373.200 301.000 C 373.200 300.450,373.405 300.000,373.656 300.000 C 374.271 300.000,375.172 298.765,375.187 297.900 C 375.194 297.515,375.380 297.200,375.600 297.200 C 375.820 297.200,376.000 296.840,376.000 296.400 C 376.000 295.960,376.180 295.600,376.400 295.600 C 376.620 295.600,376.800 295.150,376.800 294.600 C 376.800 293.978,377.027 293.600,377.400 293.600 C 377.733 293.600,378.000 293.244,378.000 292.800 C 378.000 292.360,378.180 292.000,378.400 292.000 C 378.620 292.000,378.800 291.550,378.800 291.000 C 378.800 290.450,378.980 290.000,379.200 290.000 C 379.420 290.000,379.600 289.640,379.600 289.200 C 379.600 288.760,379.780 288.400,380.000 288.400 C 380.220 288.400,380.400 287.950,380.400 287.400 C 380.400 286.778,380.627 286.400,381.000 286.400 C 381.330 286.400,381.600 286.051,381.600 285.624 C 381.600 285.197,381.780 284.736,382.000 284.600 C 382.220 284.464,382.400 284.003,382.400 283.576 C 382.400 283.149,382.580 282.800,382.800 282.800 C 383.020 282.800,383.200 282.350,383.200 281.800 C 383.200 281.250,383.380 280.800,383.600 280.800 C 383.820 280.800,384.000 280.260,384.000 279.600 C 384.000 278.800,384.200 278.400,384.600 278.400 C 384.973 278.400,385.200 278.022,385.200 277.400 C 385.200 276.850,385.380 276.400,385.600 276.400 C 385.820 276.400,386.000 275.770,386.000 275.000 C 386.000 274.230,386.180 273.600,386.400 273.600 C 386.620 273.600,386.800 273.240,386.800 272.800 C 386.800 272.360,386.980 272.000,387.200 272.000 C 387.420 272.000,387.600 271.370,387.600 270.600 C 387.600 269.622,387.781 269.200,388.200 269.200 C 388.619 269.200,388.800 268.778,388.800 267.800 C 388.800 267.030,388.980 266.400,389.200 266.400 C 389.420 266.400,389.600 265.860,389.600 265.200 C 389.600 264.540,389.780 264.000,390.000 264.000 C 390.220 264.000,390.400 263.389,390.400 262.643 C 390.400 261.805,390.630 261.197,391.000 261.055 C 391.351 260.921,391.600 260.321,391.600 259.613 C 391.600 258.946,391.780 258.400,392.000 258.400 C 392.220 258.400,392.400 257.770,392.400 257.000 C 392.400 256.230,392.580 255.600,392.800 255.600 C 393.020 255.600,393.200 254.790,393.200 253.800 C 393.200 252.810,393.380 252.000,393.600 252.000 C 393.820 252.000,394.000 251.209,394.000 250.243 C 394.000 249.050,394.193 248.412,394.600 248.255 C 394.994 248.104,395.200 247.480,395.200 246.436 C 395.200 245.562,395.380 244.736,395.600 244.600 C 395.820 244.464,396.000 243.463,396.000 242.376 C 396.000 241.289,396.180 240.400,396.400 240.400 C 396.629 240.400,396.800 239.200,396.800 237.600 C 396.800 236.000,396.971 234.800,397.200 234.800 C 397.425 234.800,397.600 233.681,397.600 232.243 C 397.600 230.339,397.753 229.627,398.200 229.455 C 398.671 229.274,398.800 228.458,398.800 225.646 C 398.800 223.155,398.951 222.016,399.295 221.902 C 399.681 221.773,399.791 216.928,399.791 200.000 C 399.791 183.072,399.681 178.227,399.295 178.098 C 398.951 177.984,398.800 176.856,398.800 174.409 C 398.800 171.646,398.671 170.836,398.200 170.655 C 397.751 170.483,397.600 169.766,397.600 167.813 C 397.600 166.338,397.426 165.200,397.200 165.200 C 396.975 165.200,396.800 164.075,396.800 162.624 C 396.800 161.207,396.620 159.936,396.400 159.800 C 396.180 159.664,396.000 158.753,396.000 157.776 C 396.000 156.799,395.820 156.000,395.600 156.000 C 395.380 156.000,395.200 155.094,395.200 153.987 C 395.200 152.568,395.023 151.907,394.600 151.745 C 394.193 151.588,394.000 150.950,394.000 149.757 C 394.000 148.791,393.820 148.000,393.600 148.000 C 393.380 148.000,393.200 147.370,393.200 146.600 C 393.200 145.830,393.020 145.200,392.800 145.200 C 392.580 145.200,392.400 144.390,392.400 143.400 C 392.400 142.410,392.220 141.600,392.000 141.600 C 391.780 141.600,391.600 141.054,391.600 140.387 C 391.600 139.679,391.351 139.079,391.000 138.945 C 390.658 138.813,390.400 138.217,390.400 137.557 C 390.400 136.921,390.220 136.400,390.000 136.400 C 389.780 136.400,389.600 135.770,389.600 135.000 C 389.600 134.230,389.420 133.600,389.200 133.600 C 388.980 133.600,388.800 132.970,388.800 132.200 C 388.800 131.222,388.619 130.800,388.200 130.800 C 387.781 130.800,387.600 130.378,387.600 129.400 C 387.600 128.630,387.420 128.000,387.200 128.000 C 386.980 128.000,386.800 127.640,386.800 127.200 C 386.800 126.760,386.620 126.400,386.400 126.400 C 386.180 126.400,386.000 125.770,386.000 125.000 C 386.000 124.230,385.820 123.600,385.600 123.600 C 385.380 123.600,385.200 123.234,385.200 122.787 C 385.200 122.341,384.930 121.871,384.600 121.745 C 384.270 121.618,384.000 121.174,384.000 120.757 C 384.000 120.341,383.820 120.000,383.600 120.000 C 383.380 120.000,383.200 119.370,383.200 118.600 C 383.200 117.830,383.020 117.200,382.800 117.200 C 382.580 117.200,382.400 116.840,382.400 116.400 C 382.400 115.960,382.220 115.600,382.000 115.600 C 381.780 115.600,381.600 115.150,381.600 114.600 C 381.600 113.978,381.373 113.600,381.000 113.600 C 380.627 113.600,380.400 113.222,380.400 112.600 C 380.400 112.050,380.220 111.600,380.000 111.600 C 379.780 111.600,379.600 111.240,379.600 110.800 C 379.600 110.360,379.420 110.000,379.200 110.000 C 378.980 110.000,378.800 109.539,378.800 108.976 C 378.800 108.396,378.627 108.060,378.400 108.200 C 378.173 108.340,378.000 108.004,378.000 107.424 C 378.000 106.780,377.777 106.400,377.400 106.400 C 377.027 106.400,376.800 106.022,376.800 105.400 C 376.800 104.850,376.620 104.400,376.400 104.400 C 376.180 104.400,376.000 104.040,376.000 103.600 C 376.000 103.160,375.820 102.800,375.600 102.800 C 375.380 102.800,375.194 102.485,375.187 102.100 C 375.172 101.235,374.271 100.000,373.656 100.000 C 373.405 100.000,373.200 99.640,373.200 99.200 C 373.200 98.760,373.020 98.400,372.800 98.400 C 372.580 98.400,372.400 98.027,372.400 97.571 C 372.400 96.686,371.534 95.600,370.829 95.600 C 370.593 95.600,370.400 95.150,370.400 94.600 C 370.400 94.050,370.220 93.600,370.000 93.600 C 369.780 93.600,369.600 93.240,369.600 92.800 C 369.600 92.360,369.420 92.000,369.200 92.000 C 368.980 92.000,368.800 91.730,368.800 91.400 C 368.800 91.070,368.620 90.800,368.400 90.800 C 368.180 90.800,368.000 90.555,368.000 90.256 C 368.000 89.957,367.550 89.374,367.000 88.961 C 366.450 88.548,366.000 87.885,366.000 87.487 C 366.000 86.710,364.307 84.800,363.618 84.800 C 363.388 84.800,363.200 84.390,363.200 83.888 C 363.200 83.387,362.840 82.717,362.400 82.400 C 361.960 82.083,361.600 81.526,361.600 81.163 C 361.600 80.799,360.970 79.964,360.200 79.306 C 359.430 78.648,358.800 77.807,358.800 77.437 C 358.800 76.784,357.116 74.800,356.562 74.800 C 356.153 74.800,355.227 73.477,355.213 72.871 C 355.197 72.231,354.220 71.200,353.629 71.200 C 353.393 71.200,353.200 71.014,353.200 70.787 C 353.200 70.249,350.551 67.600,350.013 67.600 C 349.786 67.600,349.600 67.238,349.600 66.795 C 349.600 66.330,348.335 64.714,346.600 62.961 C 344.950 61.295,343.600 59.767,343.600 59.566 C 343.600 59.365,343.412 59.200,343.182 59.200 C 342.604 59.200,340.800 57.345,340.800 56.752 C 340.800 56.485,340.696 56.370,340.570 56.497 C 340.443 56.624,338.921 55.304,337.188 53.564 C 335.301 51.669,333.709 50.400,333.219 50.400 C 332.768 50.400,332.400 50.214,332.400 49.987 C 332.400 49.449,329.751 46.800,329.213 46.800 C 328.986 46.800,328.800 46.607,328.800 46.371 C 328.800 45.734,327.747 44.800,327.029 44.800 C 326.683 44.800,326.400 44.620,326.400 44.400 C 326.400 44.180,326.130 44.000,325.800 44.000 C 325.470 44.000,325.200 43.812,325.200 43.582 C 325.200 42.927,323.308 41.200,322.590 41.200 C 321.935 41.200,320.800 40.295,320.800 39.773 C 320.800 39.336,319.473 38.428,318.800 38.404 C 318.470 38.392,317.662 37.757,317.004 36.991 C 316.346 36.226,315.531 35.600,315.192 35.600 C 314.854 35.600,314.317 35.240,314.000 34.800 C 313.683 34.360,313.090 34.000,312.683 34.000 C 311.872 34.000,310.800 33.106,310.800 32.429 C 310.800 32.193,310.440 32.000,310.000 32.000 C 309.560 32.000,309.200 31.820,309.200 31.600 C 309.200 31.380,308.930 31.200,308.600 31.200 C 308.270 31.200,308.000 31.020,308.000 30.800 C 308.000 30.580,307.640 30.400,307.200 30.400 C 306.760 30.400,306.400 30.220,306.400 30.000 C 306.400 29.780,305.950 29.600,305.400 29.600 C 304.850 29.600,304.400 29.407,304.400 29.171 C 304.400 28.534,303.347 27.600,302.629 27.600 C 302.283 27.600,302.000 27.420,302.000 27.200 C 302.000 26.980,301.621 26.800,301.158 26.800 C 300.694 26.800,299.961 26.350,299.529 25.800 C 299.096 25.250,298.395 24.800,297.971 24.800 C 297.547 24.800,297.200 24.620,297.200 24.400 C 297.200 24.180,296.840 24.000,296.400 24.000 C 295.960 24.000,295.600 23.820,295.600 23.600 C 295.600 23.380,295.150 23.200,294.600 23.200 C 293.978 23.200,293.600 22.973,293.600 22.600 C 293.600 22.267,293.244 22.000,292.800 22.000 C 292.360 22.000,292.000 21.820,292.000 21.600 C 292.000 21.380,291.550 21.200,291.000 21.200 C 290.450 21.200,290.000 21.020,290.000 20.800 C 290.000 20.580,289.640 20.400,289.200 20.400 C 288.760 20.400,288.400 20.220,288.400 20.000 C 288.400 19.780,287.950 19.600,287.400 19.600 C 286.778 19.600,286.400 19.373,286.400 19.000 C 286.400 18.670,286.051 18.400,285.624 18.400 C 285.197 18.400,284.736 18.220,284.600 18.000 C 284.464 17.780,284.003 17.600,283.576 17.600 C 283.149 17.600,282.800 17.420,282.800 17.200 C 282.800 16.980,282.350 16.800,281.800 16.800 C 281.250 16.800,280.800 16.620,280.800 16.400 C 280.800 16.180,280.260 16.000,279.600 16.000 C 278.800 16.000,278.400 15.800,278.400 15.400 C 278.400 15.027,278.022 14.800,277.400 14.800 C 276.850 14.800,276.400 14.620,276.400 14.400 C 276.400 14.180,276.051 14.000,275.624 14.000 C 275.197 14.000,274.736 13.820,274.600 13.600 C 274.464 13.380,273.823 13.200,273.176 13.200 C 272.529 13.200,272.000 13.020,272.000 12.800 C 272.000 12.580,271.370 12.400,270.600 12.400 C 269.622 12.400,269.200 12.219,269.200 11.800 C 269.200 11.427,268.822 11.200,268.200 11.200 C 267.650 11.200,267.200 11.020,267.200 10.800 C 267.200 10.580,266.660 10.400,266.000 10.400 C 265.340 10.400,264.800 10.220,264.800 10.000 C 264.800 9.780,264.170 9.600,263.400 9.600 C 262.630 9.600,262.000 9.440,262.000 9.245 C 262.000 9.050,261.190 8.769,260.200 8.621 C 259.210 8.472,258.400 8.182,258.400 7.975 C 258.400 7.769,257.770 7.600,257.000 7.600 C 256.230 7.600,255.600 7.420,255.600 7.200 C 255.600 6.980,254.790 6.800,253.800 6.800 C 252.810 6.800,252.000 6.620,252.000 6.400 C 252.000 6.180,251.447 6.000,250.771 6.000 C 250.096 6.000,249.267 5.724,248.929 5.386 C 248.537 4.995,247.726 4.807,246.685 4.869 C 245.692 4.927,244.992 4.776,244.894 4.482 C 244.801 4.203,243.990 4.000,242.967 4.000 C 241.995 4.000,241.200 3.820,241.200 3.600 C 241.200 3.380,240.221 3.200,239.024 3.200 C 237.827 3.200,236.736 3.020,236.600 2.800 C 236.464 2.580,235.033 2.400,233.419 2.400 C 231.302 2.400,230.427 2.247,230.275 1.851 C 230.126 1.464,229.207 1.285,227.151 1.243 C 225.548 1.210,224.117 0.990,223.972 0.754 C 223.700 0.315,190.674 -0.053,180.416 0.269 M168.862 76.100 C 169.366 76.815,170.098 77.749,170.489 78.175 C 170.880 78.602,171.200 79.074,171.200 79.225 C 171.200 79.376,171.830 80.187,172.600 81.028 C 173.370 81.869,174.000 82.751,174.000 82.989 C 174.000 83.227,174.315 83.706,174.700 84.054 C 175.677 84.936,176.503 86.024,177.168 87.306 C 177.480 87.908,177.861 88.400,178.014 88.400 C 178.168 88.400,178.795 89.157,179.407 90.082 C 180.019 91.008,180.943 92.221,181.460 92.778 C 181.977 93.336,182.400 93.979,182.400 94.208 C 182.400 94.436,182.760 94.883,183.200 95.200 C 183.640 95.517,184.000 95.930,184.000 96.117 C 184.000 96.304,184.225 96.694,184.500 96.984 C 184.775 97.274,185.360 98.011,185.800 98.622 C 186.240 99.232,186.825 99.959,187.100 100.237 C 187.375 100.515,187.602 100.891,187.603 101.071 C 187.605 101.252,188.195 102.030,188.914 102.800 C 189.632 103.570,191.108 105.460,192.193 107.000 C 193.278 108.540,194.399 110.038,194.684 110.330 C 194.970 110.621,195.780 111.701,196.484 112.730 C 197.189 113.758,198.161 115.029,198.644 115.554 C 201.969 119.166,201.365 119.600,193.017 119.600 L 186.009 119.600 185.879 167.900 C 185.749 216.150,185.637 220.119,184.379 221.380 C 184.171 221.589,184.000 222.343,184.000 223.056 C 184.000 223.769,183.820 224.464,183.600 224.600 C 183.380 224.736,183.200 225.289,183.200 225.829 C 183.200 226.810,183.119 227.035,181.868 229.532 C 181.500 230.265,181.200 231.120,181.200 231.432 C 181.200 231.745,181.020 232.000,180.800 232.000 C 180.580 232.000,180.400 232.450,180.400 233.000 C 180.400 233.550,180.220 234.000,180.000 234.000 C 179.780 234.000,179.600 234.360,179.600 234.800 C 179.600 235.240,179.465 235.602,179.300 235.604 C 179.135 235.606,178.645 236.416,178.210 237.404 C 177.776 238.392,177.281 239.200,177.110 239.200 C 176.940 239.200,176.800 239.402,176.800 239.649 C 176.800 240.067,173.550 244.870,172.617 245.829 C 172.388 246.065,171.660 246.957,171.000 247.810 C 169.484 249.770,165.902 253.334,164.044 254.731 C 163.262 255.319,161.994 256.385,161.227 257.100 C 160.461 257.815,159.601 258.400,159.317 258.400 C 159.032 258.400,158.800 258.550,158.800 258.732 C 158.800 258.915,158.305 259.317,157.700 259.624 C 157.095 259.932,156.043 260.592,155.362 261.092 C 154.681 261.591,153.916 262.000,153.662 262.000 C 153.408 262.000,153.200 262.180,153.200 262.400 C 153.200 262.620,152.840 262.800,152.400 262.800 C 151.960 262.800,151.600 262.980,151.600 263.200 C 151.600 263.420,151.357 263.600,151.060 263.600 C 150.762 263.600,149.673 264.050,148.638 264.600 C 147.604 265.150,146.407 265.600,145.979 265.600 C 145.550 265.600,145.200 265.780,145.200 266.000 C 145.200 266.220,144.838 266.400,144.395 266.400 C 143.952 266.400,143.277 266.556,142.895 266.746 C 141.468 267.458,139.353 268.114,137.897 268.296 C 137.071 268.400,136.295 268.645,136.174 268.842 C 136.052 269.039,134.883 269.200,133.576 269.200 C 132.259 269.200,131.200 269.378,131.200 269.600 C 131.200 269.854,128.075 270.000,122.624 270.000 C 117.337 270.000,113.952 269.847,113.800 269.600 C 113.664 269.380,112.494 269.200,111.200 269.200 C 109.906 269.200,108.748 269.040,108.627 268.844 C 108.506 268.649,107.821 268.401,107.104 268.294 C 105.794 268.099,103.598 267.391,102.305 266.746 C 101.923 266.556,101.158 266.400,100.605 266.400 C 100.052 266.400,99.600 266.220,99.600 266.000 C 99.600 265.780,99.364 265.600,99.075 265.600 C 98.786 265.600,97.617 265.150,96.477 264.600 C 95.337 264.050,94.223 263.600,94.002 263.600 C 93.781 263.600,93.600 263.420,93.600 263.200 C 93.600 262.980,93.240 262.800,92.800 262.800 C 92.360 262.800,92.000 262.620,92.000 262.400 C 92.000 262.180,91.655 262.000,91.233 262.000 C 90.812 262.000,90.407 261.865,90.333 261.700 C 90.181 261.358,86.941 259.200,86.580 259.200 C 86.450 259.200,86.110 258.975,85.825 258.700 C 84.602 257.521,83.171 256.400,82.888 256.400 C 82.444 256.400,74.816 248.856,73.400 247.017 C 72.740 246.160,71.975 245.233,71.700 244.958 C 71.425 244.682,71.200 244.279,71.200 244.062 C 71.200 243.845,71.065 243.607,70.900 243.533 C 70.529 243.368,68.636 240.816,68.279 240.000 C 68.135 239.670,67.570 238.680,67.025 237.800 C 66.479 236.920,65.740 235.570,65.382 234.800 C 65.025 234.030,64.568 233.087,64.366 232.705 C 64.165 232.323,64.000 231.648,64.000 231.205 C 64.000 230.762,63.820 230.400,63.600 230.400 C 63.380 230.400,63.200 230.027,63.200 229.571 C 63.200 229.116,62.930 228.473,62.600 228.143 C 62.270 227.813,62.000 227.116,62.000 226.595 C 62.000 226.074,61.820 225.536,61.600 225.400 C 61.380 225.264,61.200 224.544,61.200 223.800 C 61.200 223.056,61.020 222.336,60.800 222.200 C 60.580 222.064,60.400 221.189,60.400 220.256 C 60.400 219.323,60.231 218.389,60.023 218.180 C 59.055 217.203,58.800 208.074,58.800 174.358 L 58.800 139.200 77.596 139.200 L 96.391 139.200 96.544 174.300 C 96.690 207.905,96.830 212.929,97.639 213.780 C 97.837 213.989,98.000 214.467,98.000 214.842 C 98.000 215.216,98.630 216.638,99.400 218.000 C 100.170 219.362,100.800 220.605,100.800 220.762 C 100.800 221.935,109.606 229.600,110.954 229.600 C 111.309 229.600,111.600 229.780,111.600 230.000 C 111.600 230.220,111.962 230.400,112.405 230.400 C 112.848 230.400,113.523 230.558,113.905 230.752 C 117.225 232.432,125.781 233.069,128.000 231.800 C 128.550 231.486,129.484 231.222,130.076 231.214 C 130.668 231.206,131.264 231.020,131.400 230.800 C 131.536 230.580,132.087 230.400,132.624 230.400 C 133.161 230.400,133.600 230.220,133.600 230.000 C 133.600 229.780,133.915 229.600,134.300 229.600 C 134.908 229.599,135.590 229.144,137.883 227.208 C 138.149 226.984,138.462 226.800,138.578 226.800 C 138.825 226.800,143.600 222.027,143.600 221.780 C 143.600 221.690,144.230 220.631,145.000 219.427 C 145.770 218.223,146.400 216.970,146.400 216.643 C 146.400 216.315,146.580 215.936,146.800 215.800 C 147.020 215.664,147.200 215.059,147.200 214.456 C 147.200 213.853,147.425 213.135,147.700 212.860 C 148.094 212.466,148.200 202.571,148.200 166.080 L 148.200 119.800 141.610 119.690 C 133.628 119.556,132.827 118.983,135.990 115.673 C 136.656 114.977,137.200 114.308,137.200 114.187 C 137.200 113.939,137.775 113.216,139.100 111.799 C 139.595 111.270,140.000 110.648,140.000 110.418 C 140.000 110.188,140.180 110.000,140.400 110.000 C 140.620 110.000,140.802 109.775,140.803 109.500 C 140.805 109.225,141.435 108.337,142.203 107.527 C 142.972 106.716,143.600 105.894,143.600 105.699 C 143.600 105.504,144.195 104.637,144.922 103.772 C 145.649 102.907,146.678 101.570,147.209 100.800 C 147.740 100.030,148.360 99.195,148.587 98.944 C 148.814 98.694,149.349 98.007,149.775 97.419 C 150.480 96.446,151.289 95.426,152.393 94.117 C 152.617 93.851,152.800 93.486,152.800 93.305 C 152.800 93.124,153.160 92.717,153.600 92.400 C 154.040 92.083,154.400 91.631,154.400 91.395 C 154.400 91.159,155.030 90.299,155.800 89.482 C 156.570 88.666,157.200 87.851,157.200 87.671 C 157.200 87.491,157.830 86.608,158.600 85.708 C 159.370 84.809,160.000 83.954,160.000 83.808 C 160.000 83.662,160.225 83.315,160.500 83.037 C 160.775 82.759,161.360 82.032,161.800 81.422 C 162.240 80.811,162.825 80.074,163.100 79.784 C 163.375 79.494,163.600 79.146,163.600 79.010 C 163.600 78.875,164.005 78.334,164.500 77.809 C 164.995 77.285,165.723 76.393,166.119 75.828 C 167.072 74.464,167.757 74.532,168.862 76.100 M283.600 127.009 C 285.030 127.156,286.380 127.416,286.600 127.588 C 286.820 127.759,287.855 128.023,288.900 128.174 C 289.945 128.325,290.800 128.618,290.800 128.825 C 290.800 129.031,291.430 129.200,292.200 129.200 C 292.970 129.200,293.600 129.380,293.600 129.600 C 293.600 129.820,294.129 130.000,294.776 130.000 C 295.423 130.000,296.064 130.180,296.200 130.400 C 296.336 130.620,296.736 130.800,297.089 130.800 C 297.970 130.800,300.800 132.079,300.800 132.477 C 300.800 132.655,301.250 132.800,301.800 132.800 C 302.350 132.800,302.800 132.980,302.800 133.200 C 302.800 133.420,303.160 133.600,303.600 133.600 C 304.040 133.600,304.402 133.735,304.404 133.900 C 304.406 134.065,305.216 134.555,306.204 134.990 C 307.192 135.424,308.000 135.919,308.000 136.090 C 308.000 136.260,308.202 136.400,308.449 136.400 C 308.837 136.400,313.841 139.745,314.400 140.378 C 314.510 140.503,315.290 141.119,316.133 141.748 C 318.254 143.329,323.172 148.232,324.872 150.460 C 325.648 151.476,326.640 152.691,327.077 153.160 C 327.514 153.630,328.126 154.505,328.436 155.107 C 328.746 155.708,329.313 156.547,329.695 156.971 C 330.078 157.394,330.495 158.069,330.622 158.471 C 330.750 158.872,331.022 159.200,331.227 159.200 C 331.432 159.200,331.600 159.560,331.600 160.000 C 331.600 160.440,331.780 160.800,332.000 160.800 C 332.220 160.800,332.400 161.160,332.400 161.600 C 332.400 162.040,332.577 162.400,332.792 162.400 C 333.008 162.400,333.298 162.850,333.436 163.400 C 333.574 163.950,333.847 164.400,334.043 164.400 C 334.240 164.400,334.400 164.672,334.400 165.005 C 334.400 165.338,334.580 165.968,334.800 166.405 C 335.020 166.842,335.380 167.558,335.600 167.995 C 335.820 168.432,336.000 169.047,336.000 169.362 C 336.000 169.677,336.300 170.535,336.668 171.268 C 337.919 173.765,338.000 173.990,338.000 174.971 C 338.000 175.511,338.180 176.064,338.400 176.200 C 338.620 176.336,338.800 177.247,338.800 178.224 C 338.800 179.201,338.980 180.000,339.200 180.000 C 339.420 180.000,339.600 180.801,339.600 181.780 C 339.600 182.760,339.870 184.598,340.200 185.865 C 341.015 188.993,341.015 198.607,340.200 201.735 C 339.870 203.002,339.600 204.830,339.600 205.796 C 339.600 206.762,339.420 207.664,339.200 207.800 C 338.980 207.936,338.800 208.757,338.800 209.624 C 338.800 210.491,338.620 211.200,338.400 211.200 C 338.180 211.200,338.000 211.718,338.000 212.351 C 338.000 213.379,337.625 214.572,336.382 217.500 C 336.172 217.995,335.820 218.850,335.600 219.400 C 334.566 221.984,334.245 222.697,333.523 224.000 C 333.097 224.770,332.649 225.715,332.528 226.100 C 332.406 226.485,332.148 226.800,331.953 226.800 C 331.759 226.800,331.600 227.145,331.600 227.567 C 331.600 227.988,331.465 228.393,331.300 228.467 C 331.135 228.540,329.987 230.130,328.749 232.000 C 325.091 237.523,319.461 243.474,314.194 247.383 C 313.317 248.034,312.540 248.709,312.467 248.883 C 312.393 249.058,312.078 249.200,311.767 249.200 C 311.455 249.200,311.200 249.359,311.200 249.553 C 311.200 249.748,310.885 250.026,310.500 250.171 C 309.185 250.667,308.000 251.389,308.000 251.695 C 308.000 251.863,307.730 252.000,307.400 252.000 C 307.070 252.000,306.800 252.180,306.800 252.400 C 306.800 252.620,306.440 252.800,306.000 252.800 C 305.560 252.800,305.200 252.980,305.200 253.200 C 305.200 253.420,304.851 253.600,304.424 253.600 C 303.997 253.600,303.539 253.775,303.407 253.989 C 303.274 254.203,302.499 254.669,301.683 255.023 C 300.867 255.377,299.887 255.832,299.505 256.034 C 299.123 256.235,298.448 256.400,298.005 256.400 C 297.562 256.400,297.200 256.572,297.200 256.782 C 297.200 256.992,296.568 257.282,295.796 257.427 C 295.023 257.572,294.293 257.850,294.172 258.045 C 294.051 258.240,293.434 258.400,292.800 258.400 C 292.166 258.400,291.536 258.580,291.400 258.800 C 291.264 259.020,290.443 259.200,289.576 259.200 C 288.709 259.200,288.000 259.380,288.000 259.600 C 288.000 259.820,287.046 260.000,285.880 260.000 C 284.714 260.000,283.535 260.225,283.260 260.500 C 282.887 260.872,280.297 261.000,273.113 261.000 C 265.751 261.000,263.427 260.882,263.300 260.500 C 263.194 260.183,262.349 260.000,260.990 260.000 C 259.812 260.000,258.736 259.820,258.600 259.600 C 258.464 259.380,257.654 259.200,256.800 259.200 C 255.946 259.200,255.136 259.020,255.000 258.800 C 254.864 258.580,254.234 258.400,253.600 258.400 C 252.966 258.400,252.336 258.220,252.200 258.000 C 252.064 257.780,251.616 257.600,251.205 257.600 C 250.794 257.600,250.187 257.330,249.857 257.000 C 249.527 256.670,248.805 256.400,248.252 256.400 C 247.699 256.400,247.136 256.220,247.000 256.000 C 246.864 255.780,246.403 255.600,245.976 255.600 C 245.549 255.600,245.200 255.420,245.200 255.200 C 245.200 254.980,244.841 254.800,244.402 254.800 C 243.612 254.800,243.603 255.133,243.502 289.900 L 243.400 325.000 224.698 325.104 L 205.996 325.208 206.137 255.104 C 206.275 187.185,206.380 181.384,207.517 179.326 C 207.783 178.846,208.000 177.911,208.000 177.250 C 208.000 176.588,208.180 175.936,208.400 175.800 C 208.620 175.664,208.800 174.933,208.800 174.176 C 208.800 173.419,208.980 172.800,209.200 172.800 C 209.420 172.800,209.600 172.348,209.600 171.795 C 209.600 171.242,209.767 170.477,209.971 170.095 C 210.175 169.713,210.444 169.130,210.568 168.800 C 210.693 168.470,210.955 167.930,211.151 167.600 C 211.347 167.270,211.708 166.505,211.954 165.900 C 212.877 163.625,213.429 162.542,214.696 160.519 C 215.413 159.375,216.000 158.295,216.000 158.119 C 216.001 157.944,216.451 157.277,217.000 156.638 C 217.550 155.999,218.000 155.358,218.000 155.213 C 218.000 155.069,218.315 154.602,218.700 154.175 C 219.085 153.748,219.929 152.679,220.576 151.800 C 222.096 149.731,229.331 142.496,231.400 140.976 C 232.279 140.329,233.348 139.485,233.775 139.100 C 234.202 138.715,234.669 138.400,234.813 138.400 C 234.958 138.400,235.599 137.950,236.238 137.400 C 236.877 136.851,237.715 136.401,238.100 136.400 C 238.485 136.400,238.800 136.255,238.800 136.078 C 238.800 135.807,243.233 133.420,245.200 132.632 C 245.530 132.499,246.340 132.046,247.000 131.625 C 247.660 131.203,248.594 130.845,249.076 130.829 C 249.558 130.813,250.064 130.620,250.200 130.400 C 250.336 130.180,250.876 130.000,251.400 130.000 C 251.924 130.000,252.464 129.820,252.600 129.600 C 252.736 129.380,253.467 129.200,254.224 129.200 C 254.981 129.200,255.600 129.038,255.600 128.840 C 255.600 128.389,259.392 127.580,262.700 127.325 C 264.075 127.219,265.200 126.960,265.200 126.750 C 265.200 126.342,278.991 126.536,283.600 127.009 M267.600 164.633 C 267.050 164.939,266.116 165.191,265.524 165.194 C 264.932 165.197,264.336 165.380,264.200 165.600 C 264.064 165.820,263.524 166.000,263.000 166.000 C 262.476 166.000,261.936 166.180,261.800 166.400 C 261.664 166.620,261.203 166.800,260.776 166.800 C 260.349 166.800,260.000 166.935,260.000 167.100 C 259.999 167.265,259.070 167.922,257.934 168.560 C 254.271 170.617,248.400 176.316,248.400 177.813 C 248.400 178.136,248.265 178.401,248.100 178.403 C 247.698 178.406,246.400 180.719,246.400 181.432 C 246.400 181.745,246.220 182.000,246.000 182.000 C 245.780 182.000,245.600 182.439,245.600 182.976 C 245.600 183.513,245.440 184.052,245.244 184.173 C 245.049 184.294,244.788 184.979,244.666 185.696 C 244.544 186.413,244.265 187.900,244.046 189.000 C 243.827 190.100,243.648 192.260,243.648 193.800 C 243.648 195.340,243.827 197.500,244.046 198.600 C 244.265 199.700,244.544 201.187,244.666 201.904 C 244.788 202.621,245.049 203.306,245.244 203.427 C 245.440 203.548,245.600 203.991,245.600 204.411 C 245.600 204.832,245.950 205.799,246.379 206.562 C 247.568 208.680,249.275 211.332,249.763 211.821 C 250.003 212.062,250.830 213.095,251.600 214.117 C 252.370 215.139,253.180 215.982,253.400 215.991 C 253.620 216.000,254.463 216.635,255.273 217.403 C 256.084 218.172,257.029 218.800,257.373 218.800 C 257.718 218.800,258.000 218.980,258.000 219.200 C 258.000 219.420,258.270 219.600,258.600 219.600 C 258.930 219.600,259.200 219.780,259.200 220.000 C 259.200 220.220,259.549 220.400,259.976 220.400 C 260.403 220.400,260.855 220.566,260.981 220.769 C 261.106 220.972,261.747 221.257,262.405 221.401 C 263.062 221.545,263.600 221.829,263.600 222.032 C 263.600 222.234,264.219 222.400,264.976 222.400 C 265.733 222.400,266.464 222.580,266.600 222.800 C 266.748 223.039,269.396 223.200,273.200 223.200 C 277.004 223.200,279.652 223.039,279.800 222.800 C 279.936 222.580,280.519 222.400,281.096 222.400 C 285.068 222.400,298.400 212.392,298.400 209.411 C 298.400 209.075,298.580 208.800,298.800 208.800 C 299.020 208.800,299.200 208.440,299.200 208.000 C 299.200 207.560,299.360 207.200,299.557 207.200 C 299.753 207.200,300.026 206.750,300.164 206.200 C 300.302 205.650,300.592 205.200,300.808 205.200 C 301.023 205.200,301.200 204.761,301.200 204.224 C 301.200 203.687,301.380 203.136,301.600 203.000 C 301.820 202.864,302.000 202.054,302.000 201.200 C 302.000 200.346,302.180 199.536,302.400 199.400 C 302.634 199.255,302.800 196.937,302.800 193.800 C 302.800 190.663,302.634 188.345,302.400 188.200 C 302.180 188.064,302.000 187.243,302.000 186.376 C 302.000 185.509,301.820 184.800,301.600 184.800 C 301.380 184.800,301.200 184.536,301.200 184.214 C 301.200 183.490,299.911 180.649,299.500 180.467 C 299.335 180.393,299.200 179.988,299.200 179.567 C 299.200 179.145,299.020 178.800,298.800 178.800 C 298.580 178.800,298.400 178.530,298.400 178.200 C 298.400 177.870,298.232 177.600,298.027 177.600 C 297.822 177.600,297.549 177.268,297.420 176.863 C 297.061 175.731,291.023 169.600,290.267 169.600 C 289.900 169.600,289.600 169.420,289.600 169.200 C 289.600 168.980,289.330 168.800,289.000 168.800 C 288.670 168.800,288.400 168.640,288.400 168.443 C 288.400 168.247,287.950 167.974,287.400 167.836 C 286.850 167.698,286.400 167.408,286.400 167.192 C 286.400 166.977,286.051 166.800,285.624 166.800 C 285.197 166.800,284.736 166.620,284.600 166.400 C 284.464 166.180,283.924 166.000,283.400 166.000 C 282.876 166.000,282.336 165.820,282.200 165.600 C 282.064 165.380,281.535 165.200,281.025 165.200 C 280.515 165.200,279.451 164.930,278.662 164.600 C 276.767 163.808,269.045 163.832,267.600 164.633 " stroke="none" fill="#045ca4" fill-rule="evenodd"></path><path id="path4" d="M166.323 75.500 C 165.992 75.885,165.591 76.470,165.432 76.800 C 165.273 77.130,165.567 76.905,166.086 76.300 C 166.605 75.695,167.197 75.200,167.400 75.200 C 167.603 75.200,168.197 75.695,168.718 76.300 L 169.666 77.400 168.806 76.100 C 167.836 74.634,167.198 74.480,166.323 75.500 M170.093 78.400 C 170.368 78.840,170.731 79.200,170.900 79.200 C 171.069 79.200,170.982 78.840,170.707 78.400 C 170.432 77.960,170.069 77.600,169.900 77.600 C 169.731 77.600,169.818 77.960,170.093 78.400 M172.014 80.638 C 172.035 81.150,173.996 83.486,173.998 83.000 C 173.998 82.780,173.549 82.077,173.000 81.438 C 172.450 80.799,172.006 80.439,172.014 80.638 M158.951 85.300 C 157.770 86.648,157.080 87.600,157.284 87.600 C 157.384 87.600,158.045 86.880,158.752 86.000 C 160.125 84.292,160.264 83.801,158.951 85.300 M152.000 94.371 C 152.000 94.576,151.775 94.981,151.500 95.273 C 150.321 96.523,149.741 97.446,150.519 96.836 C 151.573 96.008,152.924 94.000,152.427 94.000 C 152.192 94.000,152.000 94.167,152.000 94.371 M145.351 103.300 C 144.051 104.783,143.365 105.896,144.429 104.795 C 145.675 103.506,146.548 102.400,146.319 102.400 C 146.220 102.400,145.785 102.805,145.351 103.300 M190.093 104.800 C 190.368 105.240,190.731 105.600,190.900 105.600 C 191.069 105.600,190.982 105.240,190.707 104.800 C 190.432 104.360,190.069 104.000,189.900 104.000 C 189.731 104.000,189.818 104.360,190.093 104.800 M141.601 108.198 C 141.086 108.748,140.739 109.264,140.832 109.346 C 140.924 109.428,141.419 108.978,141.930 108.347 C 143.076 106.935,142.874 106.844,141.601 108.198 M195.600 112.000 C 196.070 112.660,196.544 113.200,196.654 113.200 C 196.764 113.200,196.470 112.660,196.000 112.000 C 195.530 111.340,195.056 110.800,194.946 110.800 C 194.836 110.800,195.130 111.340,195.600 112.000 M138.400 112.371 C 138.400 112.576,138.109 113.034,137.752 113.390 C 137.396 113.747,137.197 114.130,137.309 114.242 C 137.421 114.354,137.905 113.896,138.384 113.223 C 138.863 112.550,139.062 112.000,138.827 112.000 C 138.592 112.000,138.400 112.167,138.400 112.371 M198.051 115.495 C 198.353 115.877,198.915 116.541,199.300 116.970 C 201.105 118.983,200.589 119.171,192.900 119.305 L 185.800 119.429 192.995 119.415 C 199.508 119.401,200.202 119.334,200.323 118.704 C 200.463 117.978,198.460 114.823,197.851 114.809 C 197.659 114.804,197.749 115.113,198.051 115.495 M135.000 116.948 C 133.658 119.439,133.961 119.567,141.484 119.690 L 148.200 119.800 148.200 165.800 C 148.200 191.100,148.322 210.990,148.470 210.000 C 149.122 205.664,148.834 119.699,148.167 119.443 C 147.819 119.309,144.754 119.200,141.355 119.200 C 134.464 119.200,134.021 119.017,135.590 116.814 C 136.065 116.146,136.291 115.600,136.090 115.600 C 135.890 115.600,135.399 116.206,135.000 116.948 M265.200 126.703 C 265.200 126.869,266.055 126.952,267.100 126.886 C 270.387 126.679,270.698 126.511,267.900 126.454 C 266.415 126.425,265.200 126.536,265.200 126.703 M275.633 126.545 C 275.725 126.624,277.150 126.798,278.799 126.930 C 280.753 127.086,281.590 127.038,281.199 126.791 C 280.654 126.447,275.244 126.207,275.633 126.545 M260.271 127.462 C 260.127 127.606,259.332 127.868,258.504 128.044 C 257.021 128.359,257.020 128.361,258.400 128.198 C 261.640 127.815,263.558 127.306,261.967 127.250 C 261.178 127.223,260.415 127.318,260.271 127.462 M283.600 127.358 C 283.600 127.445,284.305 127.583,285.166 127.665 C 286.028 127.748,286.647 127.676,286.543 127.507 C 286.353 127.200,283.600 127.060,283.600 127.358 M247.266 131.393 C 246.753 131.676,246.123 132.125,245.866 132.391 C 245.610 132.658,246.030 132.528,246.800 132.103 C 247.570 131.678,248.470 131.225,248.800 131.097 C 249.333 130.889,249.333 130.864,248.800 130.871 C 248.470 130.875,247.780 131.110,247.266 131.393 M298.146 131.402 C 298.776 131.731,299.496 131.999,299.746 131.998 C 299.996 131.996,299.684 131.726,299.054 131.398 C 298.424 131.069,297.704 130.801,297.454 130.802 C 297.204 130.804,297.516 131.074,298.146 131.402 M236.624 137.013 C 236.196 137.336,236.027 137.600,236.247 137.600 C 236.467 137.600,236.996 137.336,237.424 137.013 C 237.851 136.690,238.020 136.425,237.800 136.425 C 237.580 136.425,237.051 136.690,236.624 137.013 M310.000 137.346 C 310.000 137.456,310.540 137.930,311.200 138.400 C 311.860 138.870,312.400 139.164,312.400 139.054 C 312.400 138.944,311.860 138.470,311.200 138.000 C 310.540 137.530,310.000 137.236,310.000 137.346 M58.847 174.900 C 58.872 194.535,59.007 211.770,59.147 213.200 C 59.286 214.630,59.400 198.565,59.400 177.500 C 59.400 156.435,59.265 139.200,59.100 139.200 C 58.935 139.200,58.821 155.265,58.847 174.900 M231.800 140.645 C 231.360 140.986,230.651 141.516,230.224 141.823 C 229.797 142.130,229.527 142.459,229.624 142.554 C 229.721 142.648,230.520 142.115,231.400 141.369 C 233.008 140.005,233.294 139.488,231.800 140.645 M316.400 142.320 C 317.390 143.225,318.348 143.974,318.529 143.983 C 318.983 144.007,318.097 143.184,316.200 141.822 L 314.600 140.673 316.400 142.320 M323.655 149.400 C 325.295 151.202,325.555 151.202,324.117 149.400 C 323.503 148.630,322.861 148.000,322.690 148.000 C 322.520 148.000,322.954 148.630,323.655 149.400 M221.032 151.113 L 220.264 152.200 221.332 151.230 C 222.454 150.211,222.593 149.992,222.100 150.013 C 221.935 150.019,221.454 150.514,221.032 151.113 M214.447 160.873 C 213.131 162.981,212.378 164.511,212.565 164.699 C 212.678 164.811,212.993 164.385,213.266 163.752 C 213.538 163.118,214.104 162.095,214.524 161.477 C 214.944 160.859,215.216 160.282,215.128 160.195 C 215.041 160.108,214.735 160.413,214.447 160.873 M333.259 163.600 C 333.241 163.930,333.490 164.549,333.813 164.976 C 334.325 165.654,334.400 165.666,334.400 165.076 C 334.400 164.704,334.233 164.400,334.029 164.400 C 333.825 164.400,333.576 164.085,333.476 163.700 C 333.348 163.210,333.283 163.180,333.259 163.600 M278.746 164.578 C 279.486 164.920,280.511 165.200,281.022 165.200 C 281.534 165.200,282.064 165.380,282.200 165.600 C 282.336 165.820,282.752 165.999,283.124 165.998 C 284.064 165.994,282.054 164.971,280.558 164.691 C 279.921 164.572,278.950 164.358,278.400 164.215 C 277.759 164.049,277.883 164.179,278.746 164.578 M258.057 168.008 C 255.543 169.659,255.474 169.902,257.900 168.561 C 259.054 167.922,259.999 167.265,260.000 167.100 C 260.000 166.714,260.088 166.673,258.057 168.008 M286.400 167.211 C 286.400 167.558,287.953 168.181,288.201 167.932 C 288.278 167.855,287.905 167.585,287.371 167.333 C 286.837 167.081,286.400 167.026,286.400 167.211 M210.880 168.080 C 210.616 168.344,210.400 168.873,210.400 169.256 C 210.400 169.639,210.220 170.064,210.000 170.200 C 209.780 170.336,209.612 170.752,209.626 171.124 C 209.640 171.496,209.931 171.170,210.274 170.400 C 210.616 169.630,211.056 168.685,211.251 168.300 C 211.667 167.481,211.549 167.411,210.880 168.080 M251.273 173.473 C 250.159 174.742,249.331 175.865,249.433 175.966 C 249.535 176.068,249.920 175.713,250.288 175.176 C 250.656 174.639,251.558 173.591,252.292 172.847 C 253.026 172.102,253.553 171.419,253.462 171.329 C 253.372 171.238,252.386 172.203,251.273 173.473 M293.409 171.988 C 294.695 173.593,295.227 174.106,295.413 173.920 C 295.509 173.824,294.920 173.128,294.103 172.373 C 293.245 171.580,292.952 171.418,293.409 171.988 M336.832 172.276 C 336.814 172.758,336.980 173.264,337.200 173.400 C 337.420 173.536,337.614 174.042,337.632 174.524 C 337.650 175.028,337.754 175.171,337.878 174.861 C 337.996 174.564,337.905 173.934,337.676 173.461 C 337.446 172.987,337.170 172.330,337.061 172.000 C 336.936 171.621,336.852 171.723,336.832 172.276 M296.524 175.485 C 297.074 176.192,297.606 177.002,297.707 177.285 C 297.808 177.568,298.005 177.695,298.145 177.567 C 298.285 177.438,297.753 176.628,296.962 175.767 C 296.024 174.744,295.871 174.646,296.524 175.485 M247.699 177.991 C 247.012 179.090,247.074 179.383,247.832 178.625 C 248.180 178.277,248.404 177.813,248.331 177.592 C 248.257 177.372,247.973 177.551,247.699 177.991 M207.387 179.483 C 207.002 180.368,206.410 184.256,206.212 187.200 L 206.064 189.400 206.420 187.400 C 206.616 186.300,206.896 184.320,207.042 183.000 C 207.188 181.680,207.478 180.270,207.686 179.866 C 207.894 179.462,207.982 179.049,207.882 178.948 C 207.781 178.848,207.558 179.088,207.387 179.483 M299.200 179.951 C 299.200 180.198,299.367 180.400,299.571 180.400 C 299.775 180.400,300.024 180.715,300.124 181.100 C 300.279 181.691,300.314 181.698,300.354 181.149 C 300.379 180.791,300.130 180.274,299.800 180.000 C 299.385 179.656,299.200 179.641,299.200 179.951 M339.668 184.800 C 339.688 185.839,340.318 187.546,340.332 186.600 C 340.338 186.160,340.189 185.440,340.000 185.000 C 339.789 184.510,339.661 184.432,339.668 184.800 M244.067 186.910 C 243.774 187.907,243.615 189.146,243.713 189.662 C 243.848 190.373,243.904 190.279,243.946 189.274 C 243.975 188.544,244.191 187.590,244.425 187.153 C 244.659 186.716,244.794 186.074,244.725 185.727 C 244.656 185.380,244.360 185.913,244.067 186.910 M340.562 193.800 C 340.562 197.320,340.624 198.706,340.698 196.881 C 340.772 195.056,340.772 192.176,340.697 190.481 C 340.622 188.786,340.561 190.280,340.562 193.800 M302.914 193.800 C 302.917 194.900,302.995 195.303,303.087 194.695 C 303.179 194.086,303.177 193.186,303.082 192.695 C 302.987 192.203,302.911 192.700,302.914 193.800 M243.656 198.200 C 243.632 198.860,243.887 200.120,244.222 201.000 C 244.674 202.184,244.770 202.288,244.591 201.400 C 243.658 196.773,243.703 196.926,243.656 198.200 M302.267 199.467 C 302.120 199.613,302.011 200.108,302.025 200.567 C 302.049 201.333,302.082 201.323,302.434 200.442 C 302.826 199.463,302.744 198.989,302.267 199.467 M339.850 201.650 C 339.517 203.317,339.840 203.640,340.200 202.000 C 340.352 201.309,340.393 200.659,340.291 200.558 C 340.189 200.456,339.991 200.947,339.850 201.650 M247.202 208.700 C 247.203 208.865,247.657 209.540,248.210 210.200 L 249.216 211.400 248.368 209.900 C 247.545 208.442,247.198 208.085,247.202 208.700 M96.434 209.600 C 96.446 209.930,96.611 210.560,96.800 211.000 L 97.144 211.800 97.166 211.000 C 97.178 210.560,97.013 209.930,96.800 209.600 C 96.455 209.067,96.415 209.067,96.434 209.600 M185.451 213.700 C 185.317 215.075,185.127 217.010,185.028 218.000 L 184.849 219.800 185.239 218.000 C 185.724 215.761,186.163 211.200,185.893 211.200 C 185.783 211.200,185.584 212.325,185.451 213.700 M294.003 214.727 C 291.584 217.199,291.193 217.713,292.646 216.510 C 294.303 215.138,298.011 211.124,297.527 211.227 C 297.457 211.242,295.871 212.817,294.003 214.727 M249.651 212.300 C 251.437 214.575,252.867 215.780,251.341 213.723 C 250.493 212.580,249.643 211.635,249.451 211.623 C 249.259 211.610,249.349 211.915,249.651 212.300 M337.512 213.200 C 337.376 213.750,337.150 214.650,337.010 215.200 C 336.852 215.822,336.997 215.679,337.392 214.821 C 337.742 214.062,337.968 213.162,337.894 212.821 C 337.810 212.431,337.668 212.572,337.512 213.200 M253.613 216.300 C 253.619 216.465,254.114 216.946,254.713 217.368 L 255.800 218.136 254.830 217.068 C 253.811 215.946,253.592 215.807,253.613 216.300 M98.807 217.400 C 98.804 217.843,100.768 221.155,100.788 220.741 C 100.794 220.598,100.352 219.698,99.805 218.741 C 99.257 217.783,98.808 217.180,98.807 217.400 M260.624 220.987 C 261.051 221.310,261.670 221.579,262.000 221.585 C 262.330 221.590,262.084 221.326,261.454 220.998 C 259.995 220.237,259.625 220.232,260.624 220.987 M284.800 221.033 C 284.242 221.343,284.065 221.585,284.400 221.581 C 284.730 221.578,285.349 221.310,285.776 220.987 C 286.739 220.259,286.145 220.287,284.800 221.033 M333.870 222.610 C 333.721 223.045,333.491 223.670,333.358 224.000 C 333.226 224.330,333.419 224.190,333.788 223.690 C 334.158 223.189,334.388 222.564,334.300 222.300 C 334.210 222.031,334.022 222.167,333.870 222.610 M102.801 223.602 C 103.627 224.890,105.536 226.667,105.742 226.339 C 105.790 226.263,104.946 225.300,103.866 224.200 C 102.159 222.461,102.020 222.383,102.801 223.602 M271.058 223.652 C 272.487 223.858,274.412 223.857,275.658 223.650 C 277.530 223.338,277.220 223.294,273.200 223.296 C 268.944 223.299,268.784 223.325,271.058 223.652 M61.202 224.305 C 61.201 224.583,61.369 225.123,61.576 225.505 C 61.783 225.887,62.056 226.695,62.183 227.300 C 62.311 227.905,62.628 228.400,62.888 228.400 C 63.247 228.400,63.245 228.285,62.880 227.920 C 62.616 227.656,62.400 227.137,62.400 226.766 C 62.400 226.395,62.131 225.576,61.802 224.946 C 61.474 224.316,61.204 224.027,61.202 224.305 M182.466 227.197 C 182.173 227.858,182.024 228.625,182.135 228.900 C 182.246 229.175,182.351 229.031,182.368 228.580 C 182.386 228.129,182.600 227.560,182.845 227.315 C 183.090 227.070,183.224 226.673,183.144 226.432 C 183.064 226.191,182.758 226.535,182.466 227.197 M106.400 226.946 C 106.400 227.056,106.940 227.530,107.600 228.000 C 108.260 228.470,108.800 228.764,108.800 228.654 C 108.800 228.544,108.260 228.070,107.600 227.600 C 106.940 227.130,106.400 226.836,106.400 226.946 M137.722 227.374 C 137.460 227.674,137.010 228.002,136.722 228.104 C 136.435 228.207,136.297 228.397,136.416 228.528 C 136.534 228.658,137.164 228.329,137.816 227.797 C 138.467 227.264,138.820 226.829,138.600 226.830 C 138.380 226.830,137.985 227.075,137.722 227.374 M128.000 231.800 C 127.365 232.163,127.227 232.377,127.620 232.386 C 127.961 232.394,128.411 232.235,128.620 232.034 C 128.829 231.832,129.450 231.587,130.000 231.488 L 131.000 231.309 130.000 231.269 C 129.450 231.246,128.550 231.486,128.000 231.800 M326.972 234.113 C 325.387 235.986,325.111 236.400,325.451 236.391 C 325.643 236.387,326.307 235.667,326.926 234.791 C 328.162 233.045,328.187 232.677,326.972 234.113 M64.800 233.672 C 64.800 234.106,66.069 236.396,66.435 236.622 C 66.647 236.752,66.436 236.171,65.967 235.330 C 65.067 233.715,64.800 233.336,64.800 233.672 M324.001 237.798 C 323.486 238.348,323.139 238.864,323.232 238.946 C 323.324 239.028,323.819 238.578,324.330 237.947 C 325.476 236.535,325.274 236.444,324.001 237.798 M175.279 241.596 C 174.594 242.698,174.107 243.600,174.197 243.600 C 174.495 243.600,176.881 239.948,176.701 239.768 C 176.604 239.671,175.964 240.493,175.279 241.596 M320.200 241.600 C 319.802 242.040,319.566 242.400,319.677 242.400 C 319.787 242.400,320.293 242.040,320.800 241.600 C 321.307 241.160,321.543 240.800,321.323 240.800 C 321.104 240.800,320.598 241.160,320.200 241.600 M317.170 244.700 L 316.200 245.800 317.400 244.800 C 318.060 244.250,318.675 243.755,318.767 243.700 C 318.858 243.645,318.755 243.600,318.536 243.600 C 318.318 243.600,317.703 244.095,317.170 244.700 M315.029 246.229 C 314.605 246.538,314.336 246.869,314.430 246.963 C 314.524 247.057,314.948 246.881,315.371 246.571 C 315.795 246.262,316.064 245.931,315.970 245.837 C 315.876 245.743,315.452 245.919,315.029 246.229 M171.200 247.000 C 170.683 247.550,170.427 247.994,170.630 247.987 C 170.972 247.976,172.621 246.000,172.288 246.000 C 172.206 246.000,171.717 246.450,171.200 247.000 M74.412 248.198 C 75.350 249.472,76.000 250.086,76.000 249.698 C 76.000 249.501,75.510 248.903,74.912 248.370 C 74.114 247.658,73.981 247.613,74.412 248.198 M168.855 249.800 C 168.154 250.570,167.725 251.200,167.901 251.200 C 168.200 251.200,168.549 250.841,169.949 249.087 C 170.926 247.864,170.166 248.359,168.855 249.800 M301.902 254.504 C 301.079 254.963,300.465 255.398,300.538 255.471 C 300.733 255.666,303.145 254.412,303.416 253.975 C 303.708 253.501,303.698 253.505,301.902 254.504 M81.688 255.413 C 82.286 256.043,82.847 256.477,82.935 256.379 C 83.023 256.280,82.533 255.765,81.847 255.234 L 80.600 254.269 81.688 255.413 M243.104 289.762 C 243.047 309.211,243.135 325.040,243.300 324.938 C 243.465 324.836,243.600 309.027,243.600 289.806 C 243.600 256.859,243.640 254.848,244.300 254.676 C 244.829 254.537,244.781 254.481,244.104 254.446 L 243.209 254.400 243.104 289.762 M251.000 257.485 C 251.440 257.591,251.971 257.840,252.180 258.039 C 252.389 258.237,252.929 258.393,253.380 258.384 C 253.981 258.373,253.841 258.213,252.854 257.784 C 252.114 257.463,251.214 257.221,250.854 257.246 C 250.394 257.279,250.437 257.350,251.000 257.485 M293.600 257.833 C 292.984 258.175,292.838 258.390,293.220 258.394 C 293.561 258.397,294.011 258.237,294.220 258.039 C 294.429 257.840,294.960 257.591,295.400 257.485 L 296.200 257.293 295.400 257.286 C 294.960 257.282,294.150 257.528,293.600 257.833 M154.811 261.020 C 154.047 261.559,153.597 261.999,153.811 261.998 C 154.025 261.997,154.740 261.553,155.400 261.012 C 156.941 259.749,156.605 259.753,154.811 261.020 M90.143 261.400 C 90.473 261.730,90.970 262.000,91.248 262.000 C 91.531 262.000,91.412 261.742,90.976 261.413 C 89.958 260.642,89.376 260.633,90.143 261.400 M270.120 261.098 C 272.055 261.172,275.115 261.171,276.920 261.097 C 278.724 261.023,277.140 260.963,273.400 260.964 C 269.660 260.964,268.184 261.025,270.120 261.098 M97.346 265.002 C 98.805 265.763,99.175 265.768,98.176 265.013 C 97.749 264.690,97.130 264.421,96.800 264.415 C 96.470 264.410,96.716 264.674,97.346 265.002 M146.800 265.033 C 145.448 265.784,146.411 265.755,147.854 265.002 C 148.484 264.674,148.730 264.421,148.400 264.442 C 148.070 264.462,147.350 264.728,146.800 265.033 M105.200 267.800 C 105.750 268.114,106.684 268.378,107.276 268.386 C 107.868 268.394,108.464 268.580,108.600 268.800 C 108.736 269.020,109.422 269.182,110.124 269.159 L 111.400 269.118 110.000 268.727 C 109.230 268.512,108.013 268.241,107.296 268.124 C 106.579 268.007,105.894 267.751,105.773 267.556 C 105.652 267.360,105.248 267.206,104.876 267.214 C 104.384 267.224,104.472 267.384,105.200 267.800 M139.400 267.600 C 139.264 267.820,138.578 268.027,137.876 268.060 C 136.699 268.115,136.684 268.133,137.678 268.284 C 138.271 268.375,139.261 268.175,139.878 267.840 C 140.628 267.434,140.776 267.227,140.324 267.216 C 139.952 267.207,139.536 267.380,139.400 267.600 M134.800 268.800 L 133.800 269.120 134.876 269.160 C 135.468 269.182,136.064 269.020,136.200 268.800 C 136.481 268.345,136.220 268.345,134.800 268.800 M113.831 269.650 C 113.950 269.842,114.877 270.000,115.890 270.000 C 116.904 270.000,117.658 269.934,117.567 269.853 C 117.190 269.521,113.632 269.328,113.831 269.650 M129.200 269.600 L 127.400 269.880 129.300 269.940 C 130.345 269.973,131.200 269.820,131.200 269.600 C 131.200 269.380,131.155 269.227,131.100 269.260 C 131.045 269.293,130.190 269.446,129.200 269.600 " stroke="none" fill="#1d70b4" fill-rule="evenodd"></path></g></svg>